<svg xmlns="http://www.w3.org/2000/svg" xmlns:xlink="http://www.w3.org/1999/xlink" contentStyleType="text/css" data-diagram-type="CLASS" height="836px" preserveAspectRatio="none" style="width:4364px;height:836px;background:#FEFEFE;" version="1.1" viewBox="0 0 4364 836" width="4364px" zoomAndPan="magnify"><defs/><g><rect fill="#FEFEFE" height="836" style="stroke:none;stroke-width:1;" width="4364" x="0" y="0"/><!--cluster Facade--><g class="cluster" data-entity="Facade" data-source-line="7" data-uid="ent0002" id="cluster_Facade"><path d="M2639.5,6 L2696.7734,6 A3.75,3.75 0 0 1 2699.2734,8.5 L2706.2734,28.2969 L3254.5,28.2969 A2.5,2.5 0 0 1 3257,30.7969 L3257,167.69 A2.5,2.5 0 0 1 3254.5,170.19 L2639.5,170.19 A2.5,2.5 0 0 1 2637,167.69 L2637,8.5 A2.5,2.5 0 0 1 2639.5,6" fill="none" style="stroke:#000000;stroke-width:1.5;"/><line style="stroke:#000000;stroke-width:1.5;" x1="2637" x2="2706.2734" y1="28.2969" y2="28.2969"/><text fill="#000000" font-family="sans-serif" font-size="14" font-weight="bold" lengthAdjust="spacing" textLength="56.2734" x="2641" y="20.9951">Facade</text></g><!--cluster Factory Pattern--><g class="cluster" data-entity="Factory Pattern" data-source-line="16" data-uid="ent0004" id="cluster_Factory Pattern"><path d="M1392.5,211.34 L1517.4834,211.34 A3.75,3.75 0 0 1 1519.9834,213.84 L1526.9834,233.6369 L1969.5,233.6369 A2.5,2.5 0 0 1 1972,236.1369 L1972,527.18 A2.5,2.5 0 0 1 1969.5,529.68 L1392.5,529.68 A2.5,2.5 0 0 1 1390,527.18 L1390,213.84 A2.5,2.5 0 0 1 1392.5,211.34" fill="none" style="stroke:#000000;stroke-width:1.5;"/><line style="stroke:#000000;stroke-width:1.5;" x1="1390" x2="1526.9834" y1="233.6369" y2="233.6369"/><text fill="#000000" font-family="sans-serif" font-size="14" font-weight="bold" lengthAdjust="spacing" textLength="123.9834" x="1394" y="226.3351">Factory Pattern</text></g><!--cluster Menu--><g class="cluster" data-entity="Menu" data-source-line="26" data-uid="ent0012" id="cluster_Menu"><path d="M8.5,414.38 L52.8604,414.38 A3.75,3.75 0 0 1 55.3604,416.88 L62.3604,436.6769 L527.5,436.6769 A2.5,2.5 0 0 1 530,439.1769 L530,693.21 A2.5,2.5 0 0 1 527.5,695.71 L8.5,695.71 A2.5,2.5 0 0 1 6,693.21 L6,416.88 A2.5,2.5 0 0 1 8.5,414.38" fill="none" style="stroke:#000000;stroke-width:1.5;"/><line style="stroke:#000000;stroke-width:1.5;" x1="6" x2="62.3604" y1="436.6769" y2="436.6769"/><text fill="#000000" font-family="sans-serif" font-size="14" font-weight="bold" lengthAdjust="spacing" textLength="43.3604" x="10" y="429.3751">Menu</text></g><!--cluster Items--><g class="cluster" data-entity="Items" data-source-line="36" data-uid="ent0020" id="cluster_Items"><path d="M556.5,398.08 L601.8174,398.08 A3.75,3.75 0 0 1 604.3174,400.58 L611.3174,420.3769 L1363.5,420.3769 A2.5,2.5 0 0 1 1366,422.8769 L1366,826.66 A2.5,2.5 0 0 1 1363.5,829.16 L556.5,829.16 A2.5,2.5 0 0 1 554,826.66 L554,400.58 A2.5,2.5 0 0 1 556.5,398.08" fill="none" style="stroke:#000000;stroke-width:1.5;"/><line style="stroke:#000000;stroke-width:1.5;" x1="554" x2="611.3174" y1="420.3769" y2="420.3769"/><text fill="#000000" font-family="sans-serif" font-size="14" font-weight="bold" lengthAdjust="spacing" textLength="44.3174" x="558" y="413.0751">Items</text></g><!--cluster Decorator Pattern - Addons--><g class="cluster" data-entity="Decorator Pattern - Addons" data-source-line="51" data-uid="ent0034" id="cluster_Decorator Pattern - Addons"><path d="M2727.5,430.68 L2945.7871,430.68 A3.75,3.75 0 0 1 2948.2871,433.18 L2955.2871,452.9769 L3218.5,452.9769 A2.5,2.5 0 0 1 3221,455.4769 L3221,826.66 A2.5,2.5 0 0 1 3218.5,829.16 L2727.5,829.16 A2.5,2.5 0 0 1 2725,826.66 L2725,433.18 A2.5,2.5 0 0 1 2727.5,430.68" fill="none" style="stroke:#000000;stroke-width:1.5;"/><line style="stroke:#000000;stroke-width:1.5;" x1="2725" x2="2955.2871" y1="452.9769" y2="452.9769"/><text fill="#000000" font-family="sans-serif" font-size="14" font-weight="bold" lengthAdjust="spacing" textLength="217.2871" x="2729" y="445.6751">Decorator Pattern - Addons</text></g><!--cluster Strategy Pattern - Discounts--><g class="cluster" data-entity="Strategy Pattern - Discounts" data-source-line="62" data-uid="ent0044" id="cluster_Strategy Pattern - Discounts"><path d="M1998.5,219.49 L2225.4824,219.49 A3.75,3.75 0 0 1 2227.9824,221.99 L2234.9824,241.7869 L2698.5,241.7869 A2.5,2.5 0 0 1 2701,244.2869 L2701,527.18 A2.5,2.5 0 0 1 2698.5,529.68 L1998.5,529.68 A2.5,2.5 0 0 1 1996,527.18 L1996,221.99 A2.5,2.5 0 0 1 1998.5,219.49" fill="none" style="stroke:#000000;stroke-width:1.5;"/><line style="stroke:#000000;stroke-width:1.5;" x1="1996" x2="2234.9824" y1="241.7869" y2="241.7869"/><text fill="#000000" font-family="sans-serif" font-size="14" font-weight="bold" lengthAdjust="spacing" textLength="225.9824" x="2000" y="234.4851">Strategy Pattern - Discounts</text></g><!--cluster Observer Pattern--><g class="cluster" data-entity="Observer Pattern" data-source-line="72" data-uid="ent0054" id="cluster_Observer Pattern"><path d="M3361.5,203.19 L3499.0137,203.19 A3.75,3.75 0 0 1 3501.5137,205.69 L3508.5137,225.4869 L3746.5,225.4869 A2.5,2.5 0 0 1 3749,227.9869 L3749,693.21 A2.5,2.5 0 0 1 3746.5,695.71 L3361.5,695.71 A2.5,2.5 0 0 1 3359,693.21 L3359,205.69 A2.5,2.5 0 0 1 3361.5,203.19" fill="none" style="stroke:#000000;stroke-width:1.5;"/><line style="stroke:#000000;stroke-width:1.5;" x1="3359" x2="3508.5137" y1="225.4869" y2="225.4869"/><text fill="#000000" font-family="sans-serif" font-size="14" font-weight="bold" lengthAdjust="spacing" textLength="136.5137" x="3363" y="218.1851">Observer Pattern</text></g><!--cluster Payment--><g class="cluster" data-entity="Payment" data-source-line="85" data-uid="ent0061" id="cluster_Payment"><path d="M3775.5,219.49 L3846.0762,219.49 A3.75,3.75 0 0 1 3848.5762,221.99 L3855.5762,241.7869 L4354.5,241.7869 A2.5,2.5 0 0 1 4357,244.2869 L4357,527.18 A2.5,2.5 0 0 1 4354.5,529.68 L3775.5,529.68 A2.5,2.5 0 0 1 3773,527.18 L3773,221.99 A2.5,2.5 0 0 1 3775.5,219.49" fill="none" style="stroke:#000000;stroke-width:1.5;"/><line style="stroke:#000000;stroke-width:1.5;" x1="3773" x2="3855.5762" y1="241.7869" y2="241.7869"/><text fill="#000000" font-family="sans-serif" font-size="14" font-weight="bold" lengthAdjust="spacing" textLength="69.5762" x="3777" y="234.4851">Payment</text></g><!--class RestaurantFacade--><g class="entity" data-entity="RestaurantFacade" data-source-line="8" data-uid="ent0003" id="entity_RestaurantFacade"><rect fill="#F1F1F1" height="113.1875" rx="2.5" ry="2.5" style="stroke:#181818;stroke-width:0.5;" width="587.5449" x="2653.23" y="41"/><ellipse cx="2878.9116" cy="57" fill="#ADD1B2" rx="11" ry="11" style="stroke:#181818;stroke-width:1;"/><path d="M2881.8804,62.6406 Q2881.3023,62.9375 2880.6616,63.0781 Q2880.021,63.2344 2879.3179,63.2344 Q2876.8179,63.2344 2875.4898,61.5938 Q2874.1773,59.9375 2874.1773,56.8125 Q2874.1773,53.6875 2875.4898,52.0313 Q2876.8179,50.375 2879.3179,50.375 Q2880.021,50.375 2880.6616,50.5313 Q2881.3179,50.6875 2881.8804,50.9844 L2881.8804,53.7031 Q2881.2554,53.125 2880.6616,52.8594 Q2880.0679,52.5781 2879.4429,52.5781 Q2878.0991,52.5781 2877.4116,53.6563 Q2876.7241,54.7188 2876.7241,56.8125 Q2876.7241,58.9063 2877.4116,59.9844 Q2878.0991,61.0469 2879.4429,61.0469 Q2880.0679,61.0469 2880.6616,60.7813 Q2881.2554,60.5 2881.8804,59.9219 L2881.8804,62.6406 Z " fill="#000000"/><text fill="#000000" font-family="sans-serif" font-size="14" lengthAdjust="spacing" textLength="127.6816" x="2899.4116" y="61.8467">RestaurantFacade</text><line style="stroke:#181818;stroke-width:0.5;" x1="2654.23" x2="3239.7749" y1="73" y2="73"/><text fill="#000000" font-family="sans-serif" font-size="14" lengthAdjust="spacing" textLength="158.5117" x="2659.23" y="89.9951">-factory: IMenuFactory</text><line style="stroke:#181818;stroke-width:0.5;" x1="2654.23" x2="3239.7749" y1="97.2969" y2="97.2969"/><text fill="#000000" font-family="sans-serif" font-size="14" lengthAdjust="spacing" textLength="184.9121" x="2659.23" y="114.292">+selectMenu(type: String)</text><text fill="#000000" font-family="sans-serif" font-size="14" lengthAdjust="spacing" textLength="238.8545" x="2659.23" y="130.5889">+createOrder(type: String): Order</text><text fill="#000000" font-family="sans-serif" font-size="14" lengthAdjust="spacing" textLength="575.5449" x="2659.23" y="146.8857">+checkout(order: Order, discount: IDiscountStrategy, payment: IPaymentMethod)</text></g><!--class IMenuFactory--><g class="entity" data-entity="IMenuFactory" data-source-line="17" data-uid="ent0005" id="entity_IMenuFactory"><rect fill="#F1F1F1" height="80.5938" rx="2.5" ry="2.5" style="stroke:#181818;stroke-width:0.5;" width="277.0977" x="1613.45" y="246.34"/><ellipse cx="1700.2527" cy="262.34" fill="#B4A7E5" rx="11" ry="11" style="stroke:#181818;stroke-width:1;"/><path d="M1696.1746,258.1056 L1696.1746,255.9494 L1703.5652,255.9494 L1703.5652,258.1056 L1701.0965,258.1056 L1701.0965,266.1837 L1703.5652,266.1837 L1703.5652,268.34 L1696.1746,268.34 L1696.1746,266.1837 L1698.6434,266.1837 L1698.6434,258.1056 L1696.1746,258.1056 Z " fill="#000000"/><text fill="#000000" font-family="sans-serif" font-size="14" font-style="italic" lengthAdjust="spacing" textLength="94.9922" x="1720.7527" y="267.1867">IMenuFactory</text><line style="stroke:#181818;stroke-width:0.5;" x1="1614.45" x2="1889.5477" y1="278.34" y2="278.34"/><line style="stroke:#181818;stroke-width:0.5;" x1="1614.45" x2="1889.5477" y1="286.34" y2="286.34"/><text fill="#000000" font-family="sans-serif" font-size="14" lengthAdjust="spacing" textLength="157.5752" x="1619.45" y="303.3351">+createMenu(): IMenu</text><text fill="#000000" font-family="sans-serif" font-size="14" lengthAdjust="spacing" textLength="265.0977" x="1619.45" y="319.632">+createItem(type: String): IMenuItem</text></g><!--class VegMenuFactory--><g class="entity" data-entity="VegMenuFactory" data-source-line="21" data-uid="ent0006" id="entity_VegMenuFactory"><rect fill="#F1F1F1" height="48" rx="2.5" ry="2.5" style="stroke:#181818;stroke-width:0.5;" width="149.9404" x="1406.03" y="465.68"/><ellipse cx="1421.03" cy="481.68" fill="#ADD1B2" rx="11" ry="11" style="stroke:#181818;stroke-width:1;"/><path d="M1423.9988,487.3206 Q1423.4206,487.6175 1422.78,487.7581 Q1422.1394,487.9144 1421.4363,487.9144 Q1418.9363,487.9144 1417.6081,486.2737 Q1416.2956,484.6175 1416.2956,481.4925 Q1416.2956,478.3675 1417.6081,476.7112 Q1418.9363,475.055 1421.4363,475.055 Q1422.1394,475.055 1422.78,475.2112 Q1423.4363,475.3675 1423.9988,475.6644 L1423.9988,478.3831 Q1423.3738,477.805 1422.78,477.5394 Q1422.1863,477.2581 1421.5613,477.2581 Q1420.2175,477.2581 1419.53,478.3362 Q1418.8425,479.3987 1418.8425,481.4925 Q1418.8425,483.5862 1419.53,484.6644 Q1420.2175,485.7269 1421.5613,485.7269 Q1422.1863,485.7269 1422.78,485.4612 Q1423.3738,485.18 1423.9988,484.6019 L1423.9988,487.3206 Z " fill="#000000"/><text fill="#000000" font-family="sans-serif" font-size="14" lengthAdjust="spacing" textLength="117.9404" x="1435.03" y="486.5267">VegMenuFactory</text><line style="stroke:#181818;stroke-width:0.5;" x1="1407.03" x2="1554.9704" y1="497.68" y2="497.68"/><line style="stroke:#181818;stroke-width:0.5;" x1="1407.03" x2="1554.9704" y1="505.68" y2="505.68"/></g><!--class NonVegMenuFactory--><g class="entity" data-entity="NonVegMenuFactory" data-source-line="22" data-uid="ent0008" id="entity_NonVegMenuFactory"><rect fill="#F1F1F1" height="48" rx="2.5" ry="2.5" style="stroke:#181818;stroke-width:0.5;" width="177.8516" x="1591.07" y="465.68"/><ellipse cx="1606.07" cy="481.68" fill="#ADD1B2" rx="11" ry="11" style="stroke:#181818;stroke-width:1;"/><path d="M1609.0388,487.3206 Q1608.4606,487.6175 1607.82,487.7581 Q1607.1794,487.9144 1606.4763,487.9144 Q1603.9763,487.9144 1602.6481,486.2737 Q1601.3356,484.6175 1601.3356,481.4925 Q1601.3356,478.3675 1602.6481,476.7112 Q1603.9763,475.055 1606.4763,475.055 Q1607.1794,475.055 1607.82,475.2112 Q1608.4763,475.3675 1609.0388,475.6644 L1609.0388,478.3831 Q1608.4138,477.805 1607.82,477.5394 Q1607.2263,477.2581 1606.6013,477.2581 Q1605.2575,477.2581 1604.57,478.3362 Q1603.8825,479.3987 1603.8825,481.4925 Q1603.8825,483.5862 1604.57,484.6644 Q1605.2575,485.7269 1606.6013,485.7269 Q1607.2263,485.7269 1607.82,485.4612 Q1608.4138,485.18 1609.0388,484.6019 L1609.0388,487.3206 Z " fill="#000000"/><text fill="#000000" font-family="sans-serif" font-size="14" lengthAdjust="spacing" textLength="145.8516" x="1620.07" y="486.5267">NonVegMenuFactory</text><line style="stroke:#181818;stroke-width:0.5;" x1="1592.07" x2="1767.9216" y1="497.68" y2="497.68"/><line style="stroke:#181818;stroke-width:0.5;" x1="1592.07" x2="1767.9216" y1="505.68" y2="505.68"/></g><!--class KidsMenuFactory--><g class="entity" data-entity="KidsMenuFactory" data-source-line="23" data-uid="ent0010" id="entity_KidsMenuFactory"><rect fill="#F1F1F1" height="48" rx="2.5" ry="2.5" style="stroke:#181818;stroke-width:0.5;" width="152.1143" x="1803.94" y="465.68"/><ellipse cx="1818.94" cy="481.68" fill="#ADD1B2" rx="11" ry="11" style="stroke:#181818;stroke-width:1;"/><path d="M1821.9088,487.3206 Q1821.3306,487.6175 1820.69,487.7581 Q1820.0494,487.9144 1819.3463,487.9144 Q1816.8463,487.9144 1815.5181,486.2737 Q1814.2056,484.6175 1814.2056,481.4925 Q1814.2056,478.3675 1815.5181,476.7112 Q1816.8463,475.055 1819.3463,475.055 Q1820.0494,475.055 1820.69,475.2112 Q1821.3463,475.3675 1821.9088,475.6644 L1821.9088,478.3831 Q1821.2838,477.805 1820.69,477.5394 Q1820.0963,477.2581 1819.4713,477.2581 Q1818.1275,477.2581 1817.44,478.3362 Q1816.7525,479.3987 1816.7525,481.4925 Q1816.7525,483.5862 1817.44,484.6644 Q1818.1275,485.7269 1819.4713,485.7269 Q1820.0963,485.7269 1820.69,485.4612 Q1821.2838,485.18 1821.9088,484.6019 L1821.9088,487.3206 Z " fill="#000000"/><text fill="#000000" font-family="sans-serif" font-size="14" lengthAdjust="spacing" textLength="120.1143" x="1832.94" y="486.5267">KidsMenuFactory</text><line style="stroke:#181818;stroke-width:0.5;" x1="1804.94" x2="1955.0543" y1="497.68" y2="497.68"/><line style="stroke:#181818;stroke-width:0.5;" x1="1804.94" x2="1955.0543" y1="505.68" y2="505.68"/></g><!--class IMenu--><g class="entity" data-entity="IMenu" data-source-line="27" data-uid="ent0013" id="entity_IMenu"><rect fill="#F1F1F1" height="80.5938" rx="2.5" ry="2.5" style="stroke:#181818;stroke-width:0.5;" width="228.3438" x="231.83" y="449.38"/><ellipse cx="320.4682" cy="465.38" fill="#B4A7E5" rx="11" ry="11" style="stroke:#181818;stroke-width:1;"/><path d="M316.3901,461.1456 L316.3901,458.9894 L323.7807,458.9894 L323.7807,461.1456 L321.3119,461.1456 L321.3119,469.2238 L323.7807,469.2238 L323.7807,471.38 L316.3901,471.38 L316.3901,469.2238 L318.8588,469.2238 L318.8588,461.1456 L316.3901,461.1456 Z " fill="#000000"/><text fill="#000000" font-family="sans-serif" font-size="14" font-style="italic" lengthAdjust="spacing" textLength="42.5674" x="340.9682" y="470.2267">IMenu</text><line style="stroke:#181818;stroke-width:0.5;" x1="232.83" x2="459.1738" y1="481.38" y2="481.38"/><line style="stroke:#181818;stroke-width:0.5;" x1="232.83" x2="459.1738" y1="489.38" y2="489.38"/><text fill="#000000" font-family="sans-serif" font-size="14" lengthAdjust="spacing" textLength="216.3438" x="237.83" y="506.3751">+getItems(): List&lt;IMenuItem&gt;</text><text fill="#000000" font-family="sans-serif" font-size="14" lengthAdjust="spacing" textLength="72.3652" x="237.83" y="522.672">+display()</text></g><!--class VegetarianMenu--><g class="entity" data-entity="VegetarianMenu" data-source-line="31" data-uid="ent0014" id="entity_VegetarianMenu"><rect fill="#F1F1F1" height="48" rx="2.5" ry="2.5" style="stroke:#181818;stroke-width:0.5;" width="147.2949" x="22.35" y="631.71"/><ellipse cx="37.35" cy="647.71" fill="#ADD1B2" rx="11" ry="11" style="stroke:#181818;stroke-width:1;"/><path d="M40.3188,653.3506 Q39.7406,653.6475 39.1,653.7881 Q38.4594,653.9444 37.7563,653.9444 Q35.2563,653.9444 33.9281,652.3037 Q32.6156,650.6475 32.6156,647.5225 Q32.6156,644.3975 33.9281,642.7412 Q35.2563,641.085 37.7563,641.085 Q38.4594,641.085 39.1,641.2412 Q39.7563,641.3975 40.3188,641.6944 L40.3188,644.4131 Q39.6938,643.835 39.1,643.5694 Q38.5063,643.2881 37.8813,643.2881 Q36.5375,643.2881 35.85,644.3662 Q35.1625,645.4287 35.1625,647.5225 Q35.1625,649.6162 35.85,650.6944 Q36.5375,651.7569 37.8813,651.7569 Q38.5063,651.7569 39.1,651.4912 Q39.6938,651.21 40.3188,650.6319 L40.3188,653.3506 Z " fill="#000000"/><text fill="#000000" font-family="sans-serif" font-size="14" lengthAdjust="spacing" textLength="115.2949" x="51.35" y="652.5567">VegetarianMenu</text><line style="stroke:#181818;stroke-width:0.5;" x1="23.35" x2="168.6449" y1="663.71" y2="663.71"/><line style="stroke:#181818;stroke-width:0.5;" x1="23.35" x2="168.6449" y1="671.71" y2="671.71"/></g><!--class NonVegetarianMenu--><g class="entity" data-entity="NonVegetarianMenu" data-source-line="32" data-uid="ent0016" id="entity_NonVegetarianMenu"><rect fill="#F1F1F1" height="48" rx="2.5" ry="2.5" style="stroke:#181818;stroke-width:0.5;" width="175.2061" x="204.4" y="631.71"/><ellipse cx="219.4" cy="647.71" fill="#ADD1B2" rx="11" ry="11" style="stroke:#181818;stroke-width:1;"/><path d="M222.3688,653.3506 Q221.7906,653.6475 221.15,653.7881 Q220.5094,653.9444 219.8063,653.9444 Q217.3063,653.9444 215.9781,652.3037 Q214.6656,650.6475 214.6656,647.5225 Q214.6656,644.3975 215.9781,642.7412 Q217.3063,641.085 219.8063,641.085 Q220.5094,641.085 221.15,641.2412 Q221.8063,641.3975 222.3688,641.6944 L222.3688,644.4131 Q221.7438,643.835 221.15,643.5694 Q220.5563,643.2881 219.9313,643.2881 Q218.5875,643.2881 217.9,644.3662 Q217.2125,645.4287 217.2125,647.5225 Q217.2125,649.6162 217.9,650.6944 Q218.5875,651.7569 219.9313,651.7569 Q220.5563,651.7569 221.15,651.4912 Q221.7438,651.21 222.3688,650.6319 L222.3688,653.3506 Z " fill="#000000"/><text fill="#000000" font-family="sans-serif" font-size="14" lengthAdjust="spacing" textLength="143.2061" x="233.4" y="652.5567">NonVegetarianMenu</text><line style="stroke:#181818;stroke-width:0.5;" x1="205.4" x2="378.6061" y1="663.71" y2="663.71"/><line style="stroke:#181818;stroke-width:0.5;" x1="205.4" x2="378.6061" y1="671.71" y2="671.71"/></g><!--class KidsMenu--><g class="entity" data-entity="KidsMenu" data-source-line="33" data-uid="ent0018" id="entity_KidsMenu"><rect fill="#F1F1F1" height="48" rx="2.5" ry="2.5" style="stroke:#181818;stroke-width:0.5;" width="99.6895" x="414.16" y="631.71"/><ellipse cx="429.16" cy="647.71" fill="#ADD1B2" rx="11" ry="11" style="stroke:#181818;stroke-width:1;"/><path d="M432.1288,653.3506 Q431.5506,653.6475 430.91,653.7881 Q430.2694,653.9444 429.5663,653.9444 Q427.0663,653.9444 425.7381,652.3037 Q424.4256,650.6475 424.4256,647.5225 Q424.4256,644.3975 425.7381,642.7412 Q427.0663,641.085 429.5663,641.085 Q430.2694,641.085 430.91,641.2412 Q431.5663,641.3975 432.1288,641.6944 L432.1288,644.4131 Q431.5038,643.835 430.91,643.5694 Q430.3163,643.2881 429.6913,643.2881 Q428.3475,643.2881 427.66,644.3662 Q426.9725,645.4287 426.9725,647.5225 Q426.9725,649.6162 427.66,650.6944 Q428.3475,651.7569 429.6913,651.7569 Q430.3163,651.7569 430.91,651.4912 Q431.5038,651.21 432.1288,650.6319 L432.1288,653.3506 Z " fill="#000000"/><text fill="#000000" font-family="sans-serif" font-size="14" lengthAdjust="spacing" textLength="67.6895" x="443.16" y="652.5567">KidsMenu</text><line style="stroke:#181818;stroke-width:0.5;" x1="415.16" x2="512.8495" y1="663.71" y2="663.71"/><line style="stroke:#181818;stroke-width:0.5;" x1="415.16" x2="512.8495" y1="671.71" y2="671.71"/></g><!--class IMenuItem--><g class="entity" data-entity="IMenuItem" data-source-line="37" data-uid="ent0021" id="entity_IMenuItem"><rect fill="#F1F1F1" height="113.1875" rx="2.5" ry="2.5" style="stroke:#181818;stroke-width:0.5;" width="188.3262" x="891.84" y="433.08"/><ellipse cx="944.5348" cy="449.08" fill="#B4A7E5" rx="11" ry="11" style="stroke:#181818;stroke-width:1;"/><path d="M940.4567,444.8456 L940.4567,442.6894 L947.8473,442.6894 L947.8473,444.8456 L945.3786,444.8456 L945.3786,452.9238 L947.8473,452.9238 L947.8473,455.08 L940.4567,455.08 L940.4567,452.9238 L942.9254,452.9238 L942.9254,444.8456 L940.4567,444.8456 Z " fill="#000000"/><text fill="#000000" font-family="sans-serif" font-size="14" font-style="italic" lengthAdjust="spacing" textLength="74.4365" x="965.0348" y="453.9267">IMenuItem</text><line style="stroke:#181818;stroke-width:0.5;" x1="892.84" x2="1079.1662" y1="465.08" y2="465.08"/><line style="stroke:#181818;stroke-width:0.5;" x1="892.84" x2="1079.1662" y1="473.08" y2="473.08"/><text fill="#000000" font-family="sans-serif" font-size="14" lengthAdjust="spacing" textLength="137.8945" x="897.84" y="490.0751">+getName(): String</text><text fill="#000000" font-family="sans-serif" font-size="14" lengthAdjust="spacing" textLength="136.9238" x="897.84" y="506.372">+getPrice(): double</text><text fill="#000000" font-family="sans-serif" font-size="14" lengthAdjust="spacing" textLength="160.542" x="897.84" y="522.6689">+getCategory(): String</text><text fill="#000000" font-family="sans-serif" font-size="14" lengthAdjust="spacing" textLength="176.3262" x="897.84" y="538.9657">+getDescription(): String</text></g><!--class BaseMenuItem--><g class="entity" data-entity="BaseMenuItem" data-source-line="43" data-uid="ent0022" id="entity_BaseMenuItem"><rect fill="#F1F1F1" height="48" rx="2.5" ry="2.5" style="stroke:#181818;stroke-width:0.5;" width="136.3984" x="917.8" y="631.71"/><ellipse cx="932.8" cy="647.71" fill="#A9DCDF" rx="11" ry="11" style="stroke:#181818;stroke-width:1;"/><path d="M932.9094,643.0537 L931.7531,648.1319 L934.0813,648.1319 L932.9094,643.0537 Z M931.425,640.8194 L934.4094,640.8194 L937.7688,653.21 L935.3156,653.21 L934.55,650.1475 L931.2688,650.1475 L930.5188,653.21 L928.0813,653.21 L931.425,640.8194 Z " fill="#000000"/><text fill="#000000" font-family="sans-serif" font-size="14" font-style="italic" lengthAdjust="spacing" textLength="104.3984" x="946.8" y="652.5567">BaseMenuItem</text><line style="stroke:#181818;stroke-width:0.5;" x1="918.8" x2="1053.1984" y1="663.71" y2="663.71"/><line style="stroke:#181818;stroke-width:0.5;" x1="918.8" x2="1053.1984" y1="671.71" y2="671.71"/></g><!--class MargheritaPizza--><g class="entity" data-entity="MargheritaPizza" data-source-line="44" data-uid="ent0024" id="entity_MargheritaPizza"><rect fill="#F1F1F1" height="48" rx="2.5" ry="2.5" style="stroke:#181818;stroke-width:0.5;" width="144.1094" x="569.95" y="765.16"/><ellipse cx="584.95" cy="781.16" fill="#ADD1B2" rx="11" ry="11" style="stroke:#181818;stroke-width:1;"/><path d="M587.9188,786.8006 Q587.3406,787.0975 586.7,787.2381 Q586.0594,787.3944 585.3563,787.3944 Q582.8563,787.3944 581.5281,785.7538 Q580.2156,784.0975 580.2156,780.9725 Q580.2156,777.8475 581.5281,776.1913 Q582.8563,774.535 585.3563,774.535 Q586.0594,774.535 586.7,774.6913 Q587.3563,774.8475 587.9188,775.1444 L587.9188,777.8631 Q587.2938,777.285 586.7,777.0194 Q586.1063,776.7381 585.4813,776.7381 Q584.1375,776.7381 583.45,777.8163 Q582.7625,778.8788 582.7625,780.9725 Q582.7625,783.0663 583.45,784.1444 Q584.1375,785.2069 585.4813,785.2069 Q586.1063,785.2069 586.7,784.9413 Q587.2938,784.66 587.9188,784.0819 L587.9188,786.8006 Z " fill="#000000"/><text fill="#000000" font-family="sans-serif" font-size="14" lengthAdjust="spacing" textLength="112.1094" x="598.95" y="786.0067">MargheritaPizza</text><line style="stroke:#181818;stroke-width:0.5;" x1="570.95" x2="713.0594" y1="797.16" y2="797.16"/><line style="stroke:#181818;stroke-width:0.5;" x1="570.95" x2="713.0594" y1="805.16" y2="805.16"/></g><!--class PepperoniPizza--><g class="entity" data-entity="PepperoniPizza" data-source-line="45" data-uid="ent0026" id="entity_PepperoniPizza"><rect fill="#F1F1F1" height="48" rx="2.5" ry="2.5" style="stroke:#181818;stroke-width:0.5;" width="138.1348" x="748.93" y="765.16"/><ellipse cx="763.93" cy="781.16" fill="#ADD1B2" rx="11" ry="11" style="stroke:#181818;stroke-width:1;"/><path d="M766.8988,786.8006 Q766.3206,787.0975 765.68,787.2381 Q765.0394,787.3944 764.3363,787.3944 Q761.8363,787.3944 760.5081,785.7538 Q759.1956,784.0975 759.1956,780.9725 Q759.1956,777.8475 760.5081,776.1913 Q761.8363,774.535 764.3363,774.535 Q765.0394,774.535 765.68,774.6913 Q766.3363,774.8475 766.8988,775.1444 L766.8988,777.8631 Q766.2738,777.285 765.68,777.0194 Q765.0863,776.7381 764.4613,776.7381 Q763.1175,776.7381 762.43,777.8163 Q761.7425,778.8788 761.7425,780.9725 Q761.7425,783.0663 762.43,784.1444 Q763.1175,785.2069 764.4613,785.2069 Q765.0863,785.2069 765.68,784.9413 Q766.2738,784.66 766.8988,784.0819 L766.8988,786.8006 Z " fill="#000000"/><text fill="#000000" font-family="sans-serif" font-size="14" lengthAdjust="spacing" textLength="106.1348" x="777.93" y="786.0067">PepperoniPizza</text><line style="stroke:#181818;stroke-width:0.5;" x1="749.93" x2="886.0648" y1="797.16" y2="797.16"/><line style="stroke:#181818;stroke-width:0.5;" x1="749.93" x2="886.0648" y1="805.16" y2="805.16"/></g><!--class VeggieBurger--><g class="entity" data-entity="VeggieBurger" data-source-line="46" data-uid="ent0028" id="entity_VeggieBurger"><rect fill="#F1F1F1" height="48" rx="2.5" ry="2.5" style="stroke:#181818;stroke-width:0.5;" width="127.9561" x="922.02" y="765.16"/><ellipse cx="937.02" cy="781.16" fill="#ADD1B2" rx="11" ry="11" style="stroke:#181818;stroke-width:1;"/><path d="M939.9888,786.8006 Q939.4106,787.0975 938.77,787.2381 Q938.1294,787.3944 937.4263,787.3944 Q934.9263,787.3944 933.5981,785.7538 Q932.2856,784.0975 932.2856,780.9725 Q932.2856,777.8475 933.5981,776.1913 Q934.9263,774.535 937.4263,774.535 Q938.1294,774.535 938.77,774.6913 Q939.4263,774.8475 939.9888,775.1444 L939.9888,777.8631 Q939.3638,777.285 938.77,777.0194 Q938.1763,776.7381 937.5513,776.7381 Q936.2075,776.7381 935.52,777.8163 Q934.8325,778.8788 934.8325,780.9725 Q934.8325,783.0663 935.52,784.1444 Q936.2075,785.2069 937.5513,785.2069 Q938.1763,785.2069 938.77,784.9413 Q939.3638,784.66 939.9888,784.0819 L939.9888,786.8006 Z " fill="#000000"/><text fill="#000000" font-family="sans-serif" font-size="14" lengthAdjust="spacing" textLength="95.9561" x="951.02" y="786.0067">VeggieBurger</text><line style="stroke:#181818;stroke-width:0.5;" x1="923.02" x2="1048.9761" y1="797.16" y2="797.16"/><line style="stroke:#181818;stroke-width:0.5;" x1="923.02" x2="1048.9761" y1="805.16" y2="805.16"/></g><!--class ChickenBurger--><g class="entity" data-entity="ChickenBurger" data-source-line="47" data-uid="ent0030" id="entity_ChickenBurger"><rect fill="#F1F1F1" height="48" rx="2.5" ry="2.5" style="stroke:#181818;stroke-width:0.5;" width="135.3184" x="1085.34" y="765.16"/><ellipse cx="1100.34" cy="781.16" fill="#ADD1B2" rx="11" ry="11" style="stroke:#181818;stroke-width:1;"/><path d="M1103.3088,786.8006 Q1102.7306,787.0975 1102.09,787.2381 Q1101.4494,787.3944 1100.7463,787.3944 Q1098.2463,787.3944 1096.9181,785.7538 Q1095.6056,784.0975 1095.6056,780.9725 Q1095.6056,777.8475 1096.9181,776.1913 Q1098.2463,774.535 1100.7463,774.535 Q1101.4494,774.535 1102.09,774.6913 Q1102.7463,774.8475 1103.3088,775.1444 L1103.3088,777.8631 Q1102.6838,777.285 1102.09,777.0194 Q1101.4963,776.7381 1100.8713,776.7381 Q1099.5275,776.7381 1098.84,777.8163 Q1098.1525,778.8788 1098.1525,780.9725 Q1098.1525,783.0663 1098.84,784.1444 Q1099.5275,785.2069 1100.8713,785.2069 Q1101.4963,785.2069 1102.09,784.9413 Q1102.6838,784.66 1103.3088,784.0819 L1103.3088,786.8006 Z " fill="#000000"/><text fill="#000000" font-family="sans-serif" font-size="14" lengthAdjust="spacing" textLength="103.3184" x="1114.34" y="786.0067">ChickenBurger</text><line style="stroke:#181818;stroke-width:0.5;" x1="1086.34" x2="1219.6584" y1="797.16" y2="797.16"/><line style="stroke:#181818;stroke-width:0.5;" x1="1086.34" x2="1219.6584" y1="805.16" y2="805.16"/></g><!--class KidsMeal--><g class="entity" data-entity="KidsMeal" data-source-line="48" data-uid="ent0032" id="entity_KidsMeal"><rect fill="#F1F1F1" height="48" rx="2.5" ry="2.5" style="stroke:#181818;stroke-width:0.5;" width="94.4121" x="1255.79" y="765.16"/><ellipse cx="1270.79" cy="781.16" fill="#ADD1B2" rx="11" ry="11" style="stroke:#181818;stroke-width:1;"/><path d="M1273.7588,786.8006 Q1273.1806,787.0975 1272.54,787.2381 Q1271.8994,787.3944 1271.1963,787.3944 Q1268.6963,787.3944 1267.3681,785.7538 Q1266.0556,784.0975 1266.0556,780.9725 Q1266.0556,777.8475 1267.3681,776.1913 Q1268.6963,774.535 1271.1963,774.535 Q1271.8994,774.535 1272.54,774.6913 Q1273.1963,774.8475 1273.7588,775.1444 L1273.7588,777.8631 Q1273.1338,777.285 1272.54,777.0194 Q1271.9463,776.7381 1271.3213,776.7381 Q1269.9775,776.7381 1269.29,777.8163 Q1268.6025,778.8788 1268.6025,780.9725 Q1268.6025,783.0663 1269.29,784.1444 Q1269.9775,785.2069 1271.3213,785.2069 Q1271.9463,785.2069 1272.54,784.9413 Q1273.1338,784.66 1273.7588,784.0819 L1273.7588,786.8006 Z " fill="#000000"/><text fill="#000000" font-family="sans-serif" font-size="14" lengthAdjust="spacing" textLength="62.4121" x="1284.79" y="786.0067">KidsMeal</text><line style="stroke:#181818;stroke-width:0.5;" x1="1256.79" x2="1349.2021" y1="797.16" y2="797.16"/><line style="stroke:#181818;stroke-width:0.5;" x1="1256.79" x2="1349.2021" y1="805.16" y2="805.16"/></g><!--class AddonDecorator--><g class="entity" data-entity="AddonDecorator" data-source-line="52" data-uid="ent0035" id="entity_AddonDecorator"><rect fill="#F1F1F1" height="96.8906" rx="2.5" ry="2.5" style="stroke:#181818;stroke-width:0.5;" width="188.3262" x="2857.84" y="607.27"/><ellipse cx="2891.6209" cy="623.27" fill="#A9DCDF" rx="11" ry="11" style="stroke:#181818;stroke-width:1;"/><path d="M2891.7303,618.6138 L2890.574,623.6919 L2892.9022,623.6919 L2891.7303,618.6138 Z M2890.2459,616.3794 L2893.2303,616.3794 L2896.5897,628.77 L2894.1365,628.77 L2893.3709,625.7075 L2890.0897,625.7075 L2889.3397,628.77 L2886.9022,628.77 L2890.2459,616.3794 Z " fill="#000000"/><text fill="#000000" font-family="sans-serif" font-size="14" font-style="italic" lengthAdjust="spacing" textLength="114.5908" x="2909.7944" y="628.1167">AddonDecorator</text><line style="stroke:#181818;stroke-width:0.5;" x1="2858.84" x2="3045.1662" y1="639.27" y2="639.27"/><text fill="#000000" font-family="sans-serif" font-size="14" lengthAdjust="spacing" textLength="120.2852" x="2863.84" y="656.2651">-item: IMenuItem</text><line style="stroke:#181818;stroke-width:0.5;" x1="2858.84" x2="3045.1662" y1="663.5669" y2="663.5669"/><text fill="#000000" font-family="sans-serif" font-size="14" lengthAdjust="spacing" textLength="176.3262" x="2863.84" y="680.562">+getDescription(): String</text><text fill="#000000" font-family="sans-serif" font-size="14" lengthAdjust="spacing" textLength="136.9238" x="2863.84" y="696.8589">+getPrice(): double</text></g><!--class IMenuItem--><g class="entity" data-entity="IMenuItem" data-source-line="53" data-uid="ent0036" id="entity_IMenuItem"><rect fill="#F1F1F1" height="48" rx="2.5" ry="2.5" style="stroke:#181818;stroke-width:0.5;" width="106.4365" x="2898.78" y="465.68"/><ellipse cx="2913.78" cy="481.68" fill="#B4A7E5" rx="11" ry="11" style="stroke:#181818;stroke-width:1;"/><path d="M2909.7019,477.4456 L2909.7019,475.2894 L2917.0925,475.2894 L2917.0925,477.4456 L2914.6238,477.4456 L2914.6238,485.5237 L2917.0925,485.5237 L2917.0925,487.68 L2909.7019,487.68 L2909.7019,485.5237 L2912.1706,485.5237 L2912.1706,477.4456 L2909.7019,477.4456 Z " fill="#000000"/><text fill="#000000" font-family="sans-serif" font-size="14" font-style="italic" lengthAdjust="spacing" textLength="74.4365" x="2927.78" y="486.5267">IMenuItem</text><line style="stroke:#181818;stroke-width:0.5;" x1="2899.78" x2="3004.2165" y1="497.68" y2="497.68"/><line style="stroke:#181818;stroke-width:0.5;" x1="2899.78" x2="3004.2165" y1="505.68" y2="505.68"/></g><!--class ExtraCheese--><g class="entity" data-entity="ExtraCheese" data-source-line="57" data-uid="ent0038" id="entity_ExtraCheese"><rect fill="#F1F1F1" height="48" rx="2.5" ry="2.5" style="stroke:#181818;stroke-width:0.5;" width="120.7373" x="2740.63" y="765.16"/><ellipse cx="2755.63" cy="781.16" fill="#ADD1B2" rx="11" ry="11" style="stroke:#181818;stroke-width:1;"/><path d="M2758.5988,786.8006 Q2758.0206,787.0975 2757.38,787.2381 Q2756.7394,787.3944 2756.0363,787.3944 Q2753.5363,787.3944 2752.2081,785.7538 Q2750.8956,784.0975 2750.8956,780.9725 Q2750.8956,777.8475 2752.2081,776.1913 Q2753.5363,774.535 2756.0363,774.535 Q2756.7394,774.535 2757.38,774.6913 Q2758.0363,774.8475 2758.5988,775.1444 L2758.5988,777.8631 Q2757.9738,777.285 2757.38,777.0194 Q2756.7863,776.7381 2756.1613,776.7381 Q2754.8175,776.7381 2754.13,777.8163 Q2753.4425,778.8788 2753.4425,780.9725 Q2753.4425,783.0663 2754.13,784.1444 Q2754.8175,785.2069 2756.1613,785.2069 Q2756.7863,785.2069 2757.38,784.9413 Q2757.9738,784.66 2758.5988,784.0819 L2758.5988,786.8006 Z " fill="#000000"/><text fill="#000000" font-family="sans-serif" font-size="14" lengthAdjust="spacing" textLength="88.7373" x="2769.63" y="786.0067">ExtraCheese</text><line style="stroke:#181818;stroke-width:0.5;" x1="2741.63" x2="2860.3673" y1="797.16" y2="797.16"/><line style="stroke:#181818;stroke-width:0.5;" x1="2741.63" x2="2860.3673" y1="805.16" y2="805.16"/></g><!--class ExtraSauce--><g class="entity" data-entity="ExtraSauce" data-source-line="58" data-uid="ent0040" id="entity_ExtraSauce"><rect fill="#F1F1F1" height="48" rx="2.5" ry="2.5" style="stroke:#181818;stroke-width:0.5;" width="111.6045" x="2896.2" y="765.16"/><ellipse cx="2911.2" cy="781.16" fill="#ADD1B2" rx="11" ry="11" style="stroke:#181818;stroke-width:1;"/><path d="M2914.1688,786.8006 Q2913.5906,787.0975 2912.95,787.2381 Q2912.3094,787.3944 2911.6063,787.3944 Q2909.1063,787.3944 2907.7781,785.7538 Q2906.4656,784.0975 2906.4656,780.9725 Q2906.4656,777.8475 2907.7781,776.1913 Q2909.1063,774.535 2911.6063,774.535 Q2912.3094,774.535 2912.95,774.6913 Q2913.6063,774.8475 2914.1688,775.1444 L2914.1688,777.8631 Q2913.5438,777.285 2912.95,777.0194 Q2912.3563,776.7381 2911.7313,776.7381 Q2910.3875,776.7381 2909.7,777.8163 Q2909.0125,778.8788 2909.0125,780.9725 Q2909.0125,783.0663 2909.7,784.1444 Q2910.3875,785.2069 2911.7313,785.2069 Q2912.3563,785.2069 2912.95,784.9413 Q2913.5438,784.66 2914.1688,784.0819 L2914.1688,786.8006 Z " fill="#000000"/><text fill="#000000" font-family="sans-serif" font-size="14" lengthAdjust="spacing" textLength="79.6045" x="2925.2" y="786.0067">ExtraSauce</text><line style="stroke:#181818;stroke-width:0.5;" x1="2897.2" x2="3006.8045" y1="797.16" y2="797.16"/><line style="stroke:#181818;stroke-width:0.5;" x1="2897.2" x2="3006.8045" y1="805.16" y2="805.16"/></g><!--class MushroomTopping--><g class="entity" data-entity="MushroomTopping" data-source-line="59" data-uid="ent0042" id="entity_MushroomTopping"><rect fill="#F1F1F1" height="48" rx="2.5" ry="2.5" style="stroke:#181818;stroke-width:0.5;" width="162.1836" x="3042.91" y="765.16"/><ellipse cx="3057.91" cy="781.16" fill="#ADD1B2" rx="11" ry="11" style="stroke:#181818;stroke-width:1;"/><path d="M3060.8788,786.8006 Q3060.3006,787.0975 3059.66,787.2381 Q3059.0194,787.3944 3058.3163,787.3944 Q3055.8163,787.3944 3054.4881,785.7538 Q3053.1756,784.0975 3053.1756,780.9725 Q3053.1756,777.8475 3054.4881,776.1913 Q3055.8163,774.535 3058.3163,774.535 Q3059.0194,774.535 3059.66,774.6913 Q3060.3163,774.8475 3060.8788,775.1444 L3060.8788,777.8631 Q3060.2538,777.285 3059.66,777.0194 Q3059.0663,776.7381 3058.4413,776.7381 Q3057.0975,776.7381 3056.41,777.8163 Q3055.7225,778.8788 3055.7225,780.9725 Q3055.7225,783.0663 3056.41,784.1444 Q3057.0975,785.2069 3058.4413,785.2069 Q3059.0663,785.2069 3059.66,784.9413 Q3060.2538,784.66 3060.8788,784.0819 L3060.8788,786.8006 Z " fill="#000000"/><text fill="#000000" font-family="sans-serif" font-size="14" lengthAdjust="spacing" textLength="130.1836" x="3071.91" y="786.0067">MushroomTopping</text><line style="stroke:#181818;stroke-width:0.5;" x1="3043.91" x2="3204.0936" y1="797.16" y2="797.16"/><line style="stroke:#181818;stroke-width:0.5;" x1="3043.91" x2="3204.0936" y1="805.16" y2="805.16"/></g><!--class IDiscountStrategy--><g class="entity" data-entity="IDiscountStrategy" data-source-line="63" data-uid="ent0045" id="entity_IDiscountStrategy"><rect fill="#F1F1F1" height="64.2969" rx="2.5" ry="2.5" style="stroke:#181818;stroke-width:0.5;" width="303.0811" x="2272.46" y="254.49"/><ellipse cx="2356.9624" cy="270.49" fill="#B4A7E5" rx="11" ry="11" style="stroke:#181818;stroke-width:1;"/><path d="M2352.8843,266.2556 L2352.8843,264.0994 L2360.2749,264.0994 L2360.2749,266.2556 L2357.8062,266.2556 L2357.8062,274.3338 L2360.2749,274.3338 L2360.2749,276.49 L2352.8843,276.49 L2352.8843,274.3338 L2355.3531,274.3338 L2355.3531,266.2556 L2352.8843,266.2556 Z " fill="#000000"/><text fill="#000000" font-family="sans-serif" font-size="14" font-style="italic" lengthAdjust="spacing" textLength="125.5762" x="2377.4624" y="275.3367">IDiscountStrategy</text><line style="stroke:#181818;stroke-width:0.5;" x1="2273.46" x2="2574.5411" y1="286.49" y2="286.49"/><line style="stroke:#181818;stroke-width:0.5;" x1="2273.46" x2="2574.5411" y1="294.49" y2="294.49"/><text fill="#000000" font-family="sans-serif" font-size="14" lengthAdjust="spacing" textLength="291.0811" x="2278.46" y="311.4851">+calculateDiscount(order: Order): double</text></g><!--class PizzaDiscount--><g class="entity" data-entity="PizzaDiscount" data-source-line="66" data-uid="ent0046" id="entity_PizzaDiscount"><rect fill="#F1F1F1" height="48" rx="2.5" ry="2.5" style="stroke:#181818;stroke-width:0.5;" width="129.0703" x="2359.46" y="465.68"/><ellipse cx="2374.46" cy="481.68" fill="#ADD1B2" rx="11" ry="11" style="stroke:#181818;stroke-width:1;"/><path d="M2377.4288,487.3206 Q2376.8506,487.6175 2376.21,487.7581 Q2375.5694,487.9144 2374.8663,487.9144 Q2372.3663,487.9144 2371.0381,486.2737 Q2369.7256,484.6175 2369.7256,481.4925 Q2369.7256,478.3675 2371.0381,476.7112 Q2372.3663,475.055 2374.8663,475.055 Q2375.5694,475.055 2376.21,475.2112 Q2376.8663,475.3675 2377.4288,475.6644 L2377.4288,478.3831 Q2376.8038,477.805 2376.21,477.5394 Q2375.6163,477.2581 2374.9913,477.2581 Q2373.6475,477.2581 2372.96,478.3362 Q2372.2725,479.3987 2372.2725,481.4925 Q2372.2725,483.5862 2372.96,484.6644 Q2373.6475,485.7269 2374.9913,485.7269 Q2375.6163,485.7269 2376.21,485.4612 Q2376.8038,485.18 2377.4288,484.6019 L2377.4288,487.3206 Z " fill="#000000"/><text fill="#000000" font-family="sans-serif" font-size="14" lengthAdjust="spacing" textLength="97.0703" x="2388.46" y="486.5267">PizzaDiscount</text><line style="stroke:#181818;stroke-width:0.5;" x1="2360.46" x2="2487.5303" y1="497.68" y2="497.68"/><line style="stroke:#181818;stroke-width:0.5;" x1="2360.46" x2="2487.5303" y1="505.68" y2="505.68"/></g><!--class KidsMenuDiscount--><g class="entity" data-entity="KidsMenuDiscount" data-source-line="67" data-uid="ent0048" id="entity_KidsMenuDiscount"><rect fill="#F1F1F1" height="48" rx="2.5" ry="2.5" style="stroke:#181818;stroke-width:0.5;" width="161.1514" x="2523.42" y="465.68"/><ellipse cx="2538.42" cy="481.68" fill="#ADD1B2" rx="11" ry="11" style="stroke:#181818;stroke-width:1;"/><path d="M2541.3888,487.3206 Q2540.8106,487.6175 2540.17,487.7581 Q2539.5294,487.9144 2538.8263,487.9144 Q2536.3263,487.9144 2534.9981,486.2737 Q2533.6856,484.6175 2533.6856,481.4925 Q2533.6856,478.3675 2534.9981,476.7112 Q2536.3263,475.055 2538.8263,475.055 Q2539.5294,475.055 2540.17,475.2112 Q2540.8263,475.3675 2541.3888,475.6644 L2541.3888,478.3831 Q2540.7638,477.805 2540.17,477.5394 Q2539.5763,477.2581 2538.9513,477.2581 Q2537.6075,477.2581 2536.92,478.3362 Q2536.2325,479.3987 2536.2325,481.4925 Q2536.2325,483.5862 2536.92,484.6644 Q2537.6075,485.7269 2538.9513,485.7269 Q2539.5763,485.7269 2540.17,485.4612 Q2540.7638,485.18 2541.3888,484.6019 L2541.3888,487.3206 Z " fill="#000000"/><text fill="#000000" font-family="sans-serif" font-size="14" lengthAdjust="spacing" textLength="129.1514" x="2552.42" y="486.5267">KidsMenuDiscount</text><line style="stroke:#181818;stroke-width:0.5;" x1="2524.42" x2="2683.5714" y1="497.68" y2="497.68"/><line style="stroke:#181818;stroke-width:0.5;" x1="2524.42" x2="2683.5714" y1="505.68" y2="505.68"/></g><!--class MeatDiscount--><g class="entity" data-entity="MeatDiscount" data-source-line="68" data-uid="ent0050" id="entity_MeatDiscount"><rect fill="#F1F1F1" height="48" rx="2.5" ry="2.5" style="stroke:#181818;stroke-width:0.5;" width="128.2227" x="2011.89" y="465.68"/><ellipse cx="2026.89" cy="481.68" fill="#ADD1B2" rx="11" ry="11" style="stroke:#181818;stroke-width:1;"/><path d="M2029.8588,487.3206 Q2029.2806,487.6175 2028.64,487.7581 Q2027.9994,487.9144 2027.2963,487.9144 Q2024.7963,487.9144 2023.4681,486.2737 Q2022.1556,484.6175 2022.1556,481.4925 Q2022.1556,478.3675 2023.4681,476.7112 Q2024.7963,475.055 2027.2963,475.055 Q2027.9994,475.055 2028.64,475.2112 Q2029.2963,475.3675 2029.8588,475.6644 L2029.8588,478.3831 Q2029.2338,477.805 2028.64,477.5394 Q2028.0463,477.2581 2027.4213,477.2581 Q2026.0775,477.2581 2025.39,478.3362 Q2024.7025,479.3987 2024.7025,481.4925 Q2024.7025,483.5862 2025.39,484.6644 Q2026.0775,485.7269 2027.4213,485.7269 Q2028.0463,485.7269 2028.64,485.4612 Q2029.2338,485.18 2029.8588,484.6019 L2029.8588,487.3206 Z " fill="#000000"/><text fill="#000000" font-family="sans-serif" font-size="14" lengthAdjust="spacing" textLength="96.2227" x="2040.89" y="486.5267">MeatDiscount</text><line style="stroke:#181818;stroke-width:0.5;" x1="2012.89" x2="2139.1127" y1="497.68" y2="497.68"/><line style="stroke:#181818;stroke-width:0.5;" x1="2012.89" x2="2139.1127" y1="505.68" y2="505.68"/></g><!--class ChickenDiscount--><g class="entity" data-entity="ChickenDiscount" data-source-line="69" data-uid="ent0052" id="entity_ChickenDiscount"><rect fill="#F1F1F1" height="48" rx="2.5" ry="2.5" style="stroke:#181818;stroke-width:0.5;" width="149.291" x="2175.35" y="465.68"/><ellipse cx="2190.35" cy="481.68" fill="#ADD1B2" rx="11" ry="11" style="stroke:#181818;stroke-width:1;"/><path d="M2193.3188,487.3206 Q2192.7406,487.6175 2192.1,487.7581 Q2191.4594,487.9144 2190.7563,487.9144 Q2188.2563,487.9144 2186.9281,486.2737 Q2185.6156,484.6175 2185.6156,481.4925 Q2185.6156,478.3675 2186.9281,476.7112 Q2188.2563,475.055 2190.7563,475.055 Q2191.4594,475.055 2192.1,475.2112 Q2192.7563,475.3675 2193.3188,475.6644 L2193.3188,478.3831 Q2192.6938,477.805 2192.1,477.5394 Q2191.5063,477.2581 2190.8813,477.2581 Q2189.5375,477.2581 2188.85,478.3362 Q2188.1625,479.3987 2188.1625,481.4925 Q2188.1625,483.5862 2188.85,484.6644 Q2189.5375,485.7269 2190.8813,485.7269 Q2191.5063,485.7269 2192.1,485.4612 Q2192.6938,485.18 2193.3188,484.6019 L2193.3188,487.3206 Z " fill="#000000"/><text fill="#000000" font-family="sans-serif" font-size="14" lengthAdjust="spacing" textLength="117.291" x="2204.35" y="486.5267">ChickenDiscount</text><line style="stroke:#181818;stroke-width:0.5;" x1="2176.35" x2="2323.641" y1="497.68" y2="497.68"/><line style="stroke:#181818;stroke-width:0.5;" x1="2176.35" x2="2323.641" y1="505.68" y2="505.68"/></g><!--class Order--><g class="entity" data-entity="Order" data-source-line="73" data-uid="ent0055" id="entity_Order"><rect fill="#F1F1F1" height="96.8906" rx="2.5" ry="2.5" style="stroke:#181818;stroke-width:0.5;" width="267.5273" x="3375.24" y="238.19"/><ellipse cx="3484.738" cy="254.19" fill="#ADD1B2" rx="11" ry="11" style="stroke:#181818;stroke-width:1;"/><path d="M3487.7068,259.8306 Q3487.1287,260.1275 3486.488,260.2681 Q3485.8474,260.4244 3485.1443,260.4244 Q3482.6443,260.4244 3481.3162,258.7837 Q3480.0037,257.1275 3480.0037,254.0025 Q3480.0037,250.8775 3481.3162,249.2212 Q3482.6443,247.565 3485.1443,247.565 Q3485.8474,247.565 3486.488,247.7212 Q3487.1443,247.8775 3487.7068,248.1744 L3487.7068,250.8931 Q3487.0818,250.315 3486.488,250.0494 Q3485.8943,249.7681 3485.2693,249.7681 Q3483.9255,249.7681 3483.238,250.8462 Q3482.5505,251.9087 3482.5505,254.0025 Q3482.5505,256.0962 3483.238,257.1744 Q3483.9255,258.2369 3485.2693,258.2369 Q3485.8943,258.2369 3486.488,257.9712 Q3487.0818,257.69 3487.7068,257.1119 L3487.7068,259.8306 Z " fill="#000000"/><text fill="#000000" font-family="sans-serif" font-size="14" lengthAdjust="spacing" textLength="40.0313" x="3505.238" y="259.0367">Order</text><line style="stroke:#181818;stroke-width:0.5;" x1="3376.24" x2="3641.7673" y1="270.19" y2="270.19"/><text fill="#000000" font-family="sans-serif" font-size="14" lengthAdjust="spacing" textLength="239.5996" x="3381.24" y="287.1851">-observers: List&lt;IOrderObserver&gt;</text><line style="stroke:#181818;stroke-width:0.5;" x1="3376.24" x2="3641.7673" y1="294.4869" y2="294.4869"/><text fill="#000000" font-family="sans-serif" font-size="14" lengthAdjust="spacing" textLength="255.5273" x="3381.24" y="311.482">+addObserver(obs: IOrderObserver)</text><text fill="#000000" font-family="sans-serif" font-size="14" lengthAdjust="spacing" textLength="134.2031" x="3381.24" y="327.7789">+notifyObservers()</text></g><!--class IOrderObserver--><g class="entity" data-entity="IOrderObserver" data-source-line="78" data-uid="ent0056" id="entity_IOrderObserver"><rect fill="#F1F1F1" height="64.2969" rx="2.5" ry="2.5" style="stroke:#181818;stroke-width:0.5;" width="170.7578" x="3423.62" y="457.53"/><ellipse cx="3452.2883" cy="473.53" fill="#B4A7E5" rx="11" ry="11" style="stroke:#181818;stroke-width:1;"/><path d="M3448.2102,469.2956 L3448.2102,467.1394 L3455.6008,467.1394 L3455.6008,469.2956 L3453.1321,469.2956 L3453.1321,477.3738 L3455.6008,477.3738 L3455.6008,479.53 L3448.2102,479.53 L3448.2102,477.3738 L3450.6789,477.3738 L3450.6789,469.2956 L3448.2102,469.2956 Z " fill="#000000"/><text fill="#000000" font-family="sans-serif" font-size="14" font-style="italic" lengthAdjust="spacing" textLength="108.3838" x="3469.3257" y="478.3767">IOrderObserver</text><line style="stroke:#181818;stroke-width:0.5;" x1="3424.62" x2="3593.3778" y1="489.53" y2="489.53"/><line style="stroke:#181818;stroke-width:0.5;" x1="3424.62" x2="3593.3778" y1="497.53" y2="497.53"/><text fill="#000000" font-family="sans-serif" font-size="14" lengthAdjust="spacing" textLength="158.7578" x="3429.62" y="514.5251">+update(order: Order)</text></g><!--class KitchenNotification--><g class="entity" data-entity="KitchenNotification" data-source-line="81" data-uid="ent0057" id="entity_KitchenNotification"><rect fill="#F1F1F1" height="48" rx="2.5" ry="2.5" style="stroke:#181818;stroke-width:0.5;" width="164.9453" x="3374.53" y="631.71"/><ellipse cx="3389.53" cy="647.71" fill="#ADD1B2" rx="11" ry="11" style="stroke:#181818;stroke-width:1;"/><path d="M3392.4988,653.3506 Q3391.9206,653.6475 3391.28,653.7881 Q3390.6394,653.9444 3389.9363,653.9444 Q3387.4363,653.9444 3386.1081,652.3037 Q3384.7956,650.6475 3384.7956,647.5225 Q3384.7956,644.3975 3386.1081,642.7412 Q3387.4363,641.085 3389.9363,641.085 Q3390.6394,641.085 3391.28,641.2412 Q3391.9363,641.3975 3392.4988,641.6944 L3392.4988,644.4131 Q3391.8738,643.835 3391.28,643.5694 Q3390.6863,643.2881 3390.0613,643.2881 Q3388.7175,643.2881 3388.03,644.3662 Q3387.3425,645.4287 3387.3425,647.5225 Q3387.3425,649.6162 3388.03,650.6944 Q3388.7175,651.7569 3390.0613,651.7569 Q3390.6863,651.7569 3391.28,651.4912 Q3391.8738,651.21 3392.4988,650.6319 L3392.4988,653.3506 Z " fill="#000000"/><text fill="#000000" font-family="sans-serif" font-size="14" lengthAdjust="spacing" textLength="132.9453" x="3403.53" y="652.5567">KitchenNotification</text><line style="stroke:#181818;stroke-width:0.5;" x1="3375.53" x2="3538.4753" y1="663.71" y2="663.71"/><line style="stroke:#181818;stroke-width:0.5;" x1="3375.53" x2="3538.4753" y1="671.71" y2="671.71"/></g><!--class WaiterNotification--><g class="entity" data-entity="WaiterNotification" data-source-line="82" data-uid="ent0059" id="entity_WaiterNotification"><rect fill="#F1F1F1" height="48" rx="2.5" ry="2.5" style="stroke:#181818;stroke-width:0.5;" width="158.499" x="3574.75" y="631.71"/><ellipse cx="3589.75" cy="647.71" fill="#ADD1B2" rx="11" ry="11" style="stroke:#181818;stroke-width:1;"/><path d="M3592.7188,653.3506 Q3592.1406,653.6475 3591.5,653.7881 Q3590.8594,653.9444 3590.1563,653.9444 Q3587.6563,653.9444 3586.3281,652.3037 Q3585.0156,650.6475 3585.0156,647.5225 Q3585.0156,644.3975 3586.3281,642.7412 Q3587.6563,641.085 3590.1563,641.085 Q3590.8594,641.085 3591.5,641.2412 Q3592.1563,641.3975 3592.7188,641.6944 L3592.7188,644.4131 Q3592.0938,643.835 3591.5,643.5694 Q3590.9063,643.2881 3590.2813,643.2881 Q3588.9375,643.2881 3588.25,644.3662 Q3587.5625,645.4287 3587.5625,647.5225 Q3587.5625,649.6162 3588.25,650.6944 Q3588.9375,651.7569 3590.2813,651.7569 Q3590.9063,651.7569 3591.5,651.4912 Q3592.0938,651.21 3592.7188,650.6319 L3592.7188,653.3506 Z " fill="#000000"/><text fill="#000000" font-family="sans-serif" font-size="14" lengthAdjust="spacing" textLength="126.499" x="3603.75" y="652.5567">WaiterNotification</text><line style="stroke:#181818;stroke-width:0.5;" x1="3575.75" x2="3732.249" y1="663.71" y2="663.71"/><line style="stroke:#181818;stroke-width:0.5;" x1="3575.75" x2="3732.249" y1="671.71" y2="671.71"/></g><!--class IPaymentMethod--><g class="entity" data-entity="IPaymentMethod" data-source-line="86" data-uid="ent0062" id="entity_IPaymentMethod"><rect fill="#F1F1F1" height="64.2969" rx="2.5" ry="2.5" style="stroke:#181818;stroke-width:0.5;" width="312.5283" x="3834.74" y="254.49"/><ellipse cx="3927.4763" cy="270.49" fill="#B4A7E5" rx="11" ry="11" style="stroke:#181818;stroke-width:1;"/><path d="M3923.3982,266.2556 L3923.3982,264.0994 L3930.7888,264.0994 L3930.7888,266.2556 L3928.3201,266.2556 L3928.3201,274.3338 L3930.7888,274.3338 L3930.7888,276.49 L3923.3982,276.49 L3923.3982,274.3338 L3925.867,274.3338 L3925.867,266.2556 L3923.3982,266.2556 Z " fill="#000000"/><text fill="#000000" font-family="sans-serif" font-size="14" font-style="italic" lengthAdjust="spacing" textLength="118.5557" x="3947.9763" y="275.3367">IPaymentMethod</text><line style="stroke:#181818;stroke-width:0.5;" x1="3835.74" x2="4146.2683" y1="286.49" y2="286.49"/><line style="stroke:#181818;stroke-width:0.5;" x1="3835.74" x2="4146.2683" y1="294.49" y2="294.49"/><text fill="#000000" font-family="sans-serif" font-size="14" lengthAdjust="spacing" textLength="300.5283" x="3840.74" y="311.4851">+processPayment(amount: double): String</text></g><!--class CashPayment--><g class="entity" data-entity="CashPayment" data-source-line="89" data-uid="ent0063" id="entity_CashPayment"><rect fill="#F1F1F1" height="48" rx="2.5" ry="2.5" style="stroke:#181818;stroke-width:0.5;" width="128.4414" x="3788.78" y="465.68"/><ellipse cx="3803.78" cy="481.68" fill="#ADD1B2" rx="11" ry="11" style="stroke:#181818;stroke-width:1;"/><path d="M3806.7488,487.3206 Q3806.1706,487.6175 3805.53,487.7581 Q3804.8894,487.9144 3804.1863,487.9144 Q3801.6863,487.9144 3800.3581,486.2737 Q3799.0456,484.6175 3799.0456,481.4925 Q3799.0456,478.3675 3800.3581,476.7112 Q3801.6863,475.055 3804.1863,475.055 Q3804.8894,475.055 3805.53,475.2112 Q3806.1863,475.3675 3806.7488,475.6644 L3806.7488,478.3831 Q3806.1238,477.805 3805.53,477.5394 Q3804.9363,477.2581 3804.3113,477.2581 Q3802.9675,477.2581 3802.28,478.3362 Q3801.5925,479.3987 3801.5925,481.4925 Q3801.5925,483.5862 3802.28,484.6644 Q3802.9675,485.7269 3804.3113,485.7269 Q3804.9363,485.7269 3805.53,485.4612 Q3806.1238,485.18 3806.7488,484.6019 L3806.7488,487.3206 Z " fill="#000000"/><text fill="#000000" font-family="sans-serif" font-size="14" lengthAdjust="spacing" textLength="96.4414" x="3817.78" y="486.5267">CashPayment</text><line style="stroke:#181818;stroke-width:0.5;" x1="3789.78" x2="3916.2214" y1="497.68" y2="497.68"/><line style="stroke:#181818;stroke-width:0.5;" x1="3789.78" x2="3916.2214" y1="505.68" y2="505.68"/></g><!--class CreditCardPayment--><g class="entity" data-entity="CreditCardPayment" data-source-line="90" data-uid="ent0065" id="entity_CreditCardPayment"><rect fill="#F1F1F1" height="48" rx="2.5" ry="2.5" style="stroke:#181818;stroke-width:0.5;" width="169.3271" x="3952.34" y="465.68"/><ellipse cx="3967.34" cy="481.68" fill="#ADD1B2" rx="11" ry="11" style="stroke:#181818;stroke-width:1;"/><path d="M3970.3088,487.3206 Q3969.7306,487.6175 3969.09,487.7581 Q3968.4494,487.9144 3967.7463,487.9144 Q3965.2463,487.9144 3963.9181,486.2737 Q3962.6056,484.6175 3962.6056,481.4925 Q3962.6056,478.3675 3963.9181,476.7112 Q3965.2463,475.055 3967.7463,475.055 Q3968.4494,475.055 3969.09,475.2112 Q3969.7463,475.3675 3970.3088,475.6644 L3970.3088,478.3831 Q3969.6838,477.805 3969.09,477.5394 Q3968.4963,477.2581 3967.8713,477.2581 Q3966.5275,477.2581 3965.84,478.3362 Q3965.1525,479.3987 3965.1525,481.4925 Q3965.1525,483.5862 3965.84,484.6644 Q3966.5275,485.7269 3967.8713,485.7269 Q3968.4963,485.7269 3969.09,485.4612 Q3969.6838,485.18 3970.3088,484.6019 L3970.3088,487.3206 Z " fill="#000000"/><text fill="#000000" font-family="sans-serif" font-size="14" lengthAdjust="spacing" textLength="137.3271" x="3981.34" y="486.5267">CreditCardPayment</text><line style="stroke:#181818;stroke-width:0.5;" x1="3953.34" x2="4120.6671" y1="497.68" y2="497.68"/><line style="stroke:#181818;stroke-width:0.5;" x1="3953.34" x2="4120.6671" y1="505.68" y2="505.68"/></g><!--class MobileWalletPayment--><g class="entity" data-entity="MobileWalletPayment" data-source-line="91" data-uid="ent0067" id="entity_MobileWalletPayment"><rect fill="#F1F1F1" height="48" rx="2.5" ry="2.5" style="stroke:#181818;stroke-width:0.5;" width="184.1475" x="4156.93" y="465.68"/><ellipse cx="4171.93" cy="481.68" fill="#ADD1B2" rx="11" ry="11" style="stroke:#181818;stroke-width:1;"/><path d="M4174.8988,487.3206 Q4174.3206,487.6175 4173.68,487.7581 Q4173.0394,487.9144 4172.3363,487.9144 Q4169.8363,487.9144 4168.5081,486.2737 Q4167.1956,484.6175 4167.1956,481.4925 Q4167.1956,478.3675 4168.5081,476.7112 Q4169.8363,475.055 4172.3363,475.055 Q4173.0394,475.055 4173.68,475.2112 Q4174.3363,475.3675 4174.8988,475.6644 L4174.8988,478.3831 Q4174.2738,477.805 4173.68,477.5394 Q4173.0863,477.2581 4172.4613,477.2581 Q4171.1175,477.2581 4170.43,478.3362 Q4169.7425,479.3987 4169.7425,481.4925 Q4169.7425,483.5862 4170.43,484.6644 Q4171.1175,485.7269 4172.4613,485.7269 Q4173.0863,485.7269 4173.68,485.4612 Q4174.2738,485.18 4174.8988,484.6019 L4174.8988,487.3206 Z " fill="#000000"/><text fill="#000000" font-family="sans-serif" font-size="14" lengthAdjust="spacing" textLength="152.1475" x="4185.93" y="486.5267">MobileWalletPayment</text><line style="stroke:#181818;stroke-width:0.5;" x1="4157.93" x2="4340.0775" y1="497.68" y2="497.68"/><line style="stroke:#181818;stroke-width:0.5;" x1="4157.93" x2="4340.0775" y1="505.68" y2="505.68"/></g><!--class IMenuItem--><g class="entity" data-entity="IMenuItem" data-source-line="97" data-uid="ent0071" id="entity_IMenuItem"><rect fill="#F1F1F1" height="48" rx="2.5" ry="2.5" style="stroke:#181818;stroke-width:0.5;" width="106.4365" x="3236.78" y="465.68"/><ellipse cx="3251.78" cy="481.68" fill="#ADD1B2" rx="11" ry="11" style="stroke:#181818;stroke-width:1;"/><path d="M3254.7488,487.3206 Q3254.1706,487.6175 3253.53,487.7581 Q3252.8894,487.9144 3252.1863,487.9144 Q3249.6863,487.9144 3248.3581,486.2737 Q3247.0456,484.6175 3247.0456,481.4925 Q3247.0456,478.3675 3248.3581,476.7112 Q3249.6863,475.055 3252.1863,475.055 Q3252.8894,475.055 3253.53,475.2112 Q3254.1863,475.3675 3254.7488,475.6644 L3254.7488,478.3831 Q3254.1238,477.805 3253.53,477.5394 Q3252.9363,477.2581 3252.3113,477.2581 Q3250.9675,477.2581 3250.28,478.3362 Q3249.5925,479.3987 3249.5925,481.4925 Q3249.5925,483.5862 3250.28,484.6644 Q3250.9675,485.7269 3252.3113,485.7269 Q3252.9363,485.7269 3253.53,485.4612 Q3254.1238,485.18 3254.7488,484.6019 L3254.7488,487.3206 Z " fill="#000000"/><text fill="#000000" font-family="sans-serif" font-size="14" lengthAdjust="spacing" textLength="74.4365" x="3265.78" y="486.5267">IMenuItem</text><line style="stroke:#181818;stroke-width:0.5;" x1="3237.78" x2="3342.2165" y1="497.68" y2="497.68"/><line style="stroke:#181818;stroke-width:0.5;" x1="3237.78" x2="3342.2165" y1="505.68" y2="505.68"/></g><!--reverse link IMenuFactory to VegMenuFactory--><g class="link" data-entity-1="IMenuFactory" data-entity-2="VegMenuFactory" data-source-line="21" data-uid="lnk7" id="link_IMenuFactory_VegMenuFactory"><path d="M1655.9202,335.9435 C1624.1502,353.2835 1603.94,366.44 1574,390.08 C1545.38,412.69 1517.32,444.06 1499.64,465.3" fill="none" id="IMenuFactory-backto-VegMenuFactory" style="stroke:#181818;stroke-width:1;stroke-dasharray:7,7;"/><polygon fill="none" points="1671.72,327.32,1653.0457,330.6769,1658.7947,341.2101,1671.72,327.32" style="stroke:#181818;stroke-width:1;"/></g><!--reverse link IMenuFactory to NonVegMenuFactory--><g class="link" data-entity-1="IMenuFactory" data-entity-2="NonVegMenuFactory" data-source-line="22" data-uid="lnk9" id="link_IMenuFactory_NonVegMenuFactory"><path d="M1731.708,344.3049 C1716.948,385.4949 1700.45,431.57 1688.35,465.36" fill="none" id="IMenuFactory-backto-NonVegMenuFactory" style="stroke:#181818;stroke-width:1;stroke-dasharray:7,7;"/><polygon fill="none" points="1737.78,327.36,1726.0597,342.2809,1737.3563,346.3289,1737.78,327.36" style="stroke:#181818;stroke-width:1;"/></g><!--reverse link IMenuFactory to KidsMenuFactory--><g class="link" data-entity-1="IMenuFactory" data-entity-2="KidsMenuFactory" data-source-line="23" data-uid="lnk11" id="link_IMenuFactory_KidsMenuFactory"><path d="M1786.9585,342.5429 C1813.1885,383.7329 1843.64,431.57 1865.15,465.36" fill="none" id="IMenuFactory-backto-KidsMenuFactory" style="stroke:#181818;stroke-width:1;stroke-dasharray:7,7;"/><polygon fill="none" points="1777.29,327.36,1781.8976,345.7657,1792.0195,339.32,1777.29,327.36" style="stroke:#181818;stroke-width:1;"/></g><!--reverse link IMenu to VegetarianMenu--><g class="link" data-entity-1="IMenu" data-entity-2="VegetarianMenu" data-source-line="31" data-uid="lnk15" id="link_IMenu_VegetarianMenu"><path d="M270.4313,540.2561 C222.3113,571.8361 171.68,605.06 131.64,631.33" fill="none" id="IMenu-backto-VegetarianMenu" style="stroke:#181818;stroke-width:1;stroke-dasharray:7,7;"/><polygon fill="none" points="285.48,530.38,267.1393,535.2399,273.7233,545.2723,285.48,530.38" style="stroke:#181818;stroke-width:1;"/></g><!--reverse link IMenu to NonVegetarianMenu--><g class="link" data-entity-1="IMenu" data-entity-2="NonVegetarianMenu" data-source-line="32" data-uid="lnk17" id="link_IMenu_NonVegetarianMenu"><path d="M327.2995,547.4767 C316.8695,579.1467 308.26,605.31 299.62,631.57" fill="none" id="IMenu-backto-NonVegetarianMenu" style="stroke:#181818;stroke-width:1;stroke-dasharray:7,7;"/><polygon fill="none" points="332.93,530.38,321.6006,545.5999,332.9984,549.3535,332.93,530.38" style="stroke:#181818;stroke-width:1;"/></g><!--reverse link IMenu to KidsMenu--><g class="link" data-entity-1="IMenu" data-entity-2="KidsMenu" data-source-line="33" data-uid="lnk19" id="link_IMenu_KidsMenu"><path d="M385.0737,544.9903 C407.8637,576.6603 428.46,605.31 447.35,631.57" fill="none" id="IMenu-backto-KidsMenu" style="stroke:#181818;stroke-width:1;stroke-dasharray:7,7;"/><polygon fill="none" points="374.56,530.38,380.2036,548.4949,389.9438,541.4858,374.56,530.38" style="stroke:#181818;stroke-width:1;"/></g><!--reverse link IMenuItem to BaseMenuItem--><g class="link" data-entity-1="IMenuItem" data-entity-2="BaseMenuItem" data-source-line="43" data-uid="lnk23" id="link_IMenuItem_BaseMenuItem"><path d="M986,564.67 C986,593.63 986,609.41 986,631.39" fill="none" id="IMenuItem-backto-BaseMenuItem" style="stroke:#181818;stroke-width:1;stroke-dasharray:7,7;"/><polygon fill="none" points="986,546.67,980,564.67,992,564.67,986,546.67" style="stroke:#181818;stroke-width:1;"/></g><!--reverse link BaseMenuItem to MargheritaPizza--><g class="link" data-entity-1="BaseMenuItem" data-entity-2="MargheritaPizza" data-source-line="44" data-uid="lnk25" id="link_BaseMenuItem_MargheritaPizza"><path d="M900.4453,685.2606 C834.2953,709.0906 753.06,740.49 693.37,764.7" fill="none" id="BaseMenuItem-backto-MargheritaPizza" style="stroke:#181818;stroke-width:1;"/><polygon fill="none" points="917.38,679.16,898.4118,679.6157,902.4789,690.9055,917.38,679.16" style="stroke:#181818;stroke-width:1;"/></g><!--reverse link BaseMenuItem to MargheritaPizza--><g class="link" data-entity-1="BaseMenuItem" data-entity-2="MargheritaPizza" data-source-line="104" data-uid="lnk78" id="link_BaseMenuItem_MargheritaPizza"><path codeLine="104" d="M918.4583,686.9963 C859.7683,710.8863 780.14,740.9 713.87,764.75" fill="none" id="BaseMenuItem-backto-MargheritaPizza-1" style="stroke:#181818;stroke-width:1;"/><polygon fill="none" points="935.13,680.21,916.1962,681.4391,920.7204,692.5535,935.13,680.21" style="stroke:#181818;stroke-width:1;"/></g><!--reverse link BaseMenuItem to PepperoniPizza--><g class="link" data-entity-1="BaseMenuItem" data-entity-2="PepperoniPizza" data-source-line="45" data-uid="lnk27" id="link_BaseMenuItem_PepperoniPizza"><path d="M931.1718,690.5294 C896.9718,714.4594 864.61,741.01 837.76,764.86" fill="none" id="BaseMenuItem-backto-PepperoniPizza" style="stroke:#181818;stroke-width:1;"/><polygon fill="none" points="945.92,680.21,927.732,685.6134,934.6116,695.4455,945.92,680.21" style="stroke:#181818;stroke-width:1;"/></g><!--reverse link BaseMenuItem to PepperoniPizza--><g class="link" data-entity-1="BaseMenuItem" data-entity-2="PepperoniPizza" data-source-line="105" data-uid="lnk79" id="link_BaseMenuItem_PepperoniPizza"><path codeLine="105" d="M953.1846,692.2111 C926.4346,716.1411 892.72,741.01 858.37,764.86" fill="none" id="BaseMenuItem-backto-PepperoniPizza-1" style="stroke:#181818;stroke-width:1;"/><polygon fill="none" points="966.6,680.21,949.1842,687.7393,957.185,696.6829,966.6,680.21" style="stroke:#181818;stroke-width:1;"/></g><!--reverse link BaseMenuItem to VeggieBurger--><g class="link" data-entity-1="BaseMenuItem" data-entity-2="VeggieBurger" data-source-line="46" data-uid="lnk29" id="link_BaseMenuItem_VeggieBurger"><path d="M973.2677,698.0075 C969.6477,721.9375 972.35,741.01 975.99,764.86" fill="none" id="BaseMenuItem-backto-VeggieBurger" style="stroke:#181818;stroke-width:1;"/><polygon fill="none" points="975.96,680.21,967.3352,697.1101,979.2002,698.9049,975.96,680.21" style="stroke:#181818;stroke-width:1;"/></g><!--reverse link BaseMenuItem to VeggieBurger--><g class="link" data-entity-1="BaseMenuItem" data-entity-2="VeggieBurger" data-source-line="106" data-uid="lnk80" id="link_BaseMenuItem_VeggieBurger"><path codeLine="106" d="M999.4819,697.9826 C1003.3219,721.9126 1000.46,741.01 996.6,764.86" fill="none" id="BaseMenuItem-backto-VeggieBurger-1" style="stroke:#181818;stroke-width:1;"/><polygon fill="none" points="996.63,680.21,993.5577,698.9333,1005.4061,697.032,996.63,680.21" style="stroke:#181818;stroke-width:1;"/></g><!--reverse link BaseMenuItem to ChickenBurger--><g class="link" data-entity-1="BaseMenuItem" data-entity-2="ChickenBurger" data-source-line="47" data-uid="lnk31" id="link_BaseMenuItem_ChickenBurger"><path d="M1019.2398,692.2062 C1046.0098,716.1362 1079.45,741.01 1113.39,764.86" fill="none" id="BaseMenuItem-backto-ChickenBurger" style="stroke:#181818;stroke-width:1;"/><polygon fill="none" points="1005.82,680.21,1015.2411,696.6794,1023.2386,687.7329,1005.82,680.21" style="stroke:#181818;stroke-width:1;"/></g><!--reverse link BaseMenuItem to ChickenBurger--><g class="link" data-entity-1="BaseMenuItem" data-entity-2="ChickenBurger" data-source-line="107" data-uid="lnk81" id="link_BaseMenuItem_ChickenBurger"><path codeLine="107" d="M1041.2424,690.5234 C1075.4724,714.4534 1107.55,741.01 1134,764.86" fill="none" id="BaseMenuItem-backto-ChickenBurger-1" style="stroke:#181818;stroke-width:1;"/><polygon fill="none" points="1026.49,680.21,1037.8047,695.4408,1044.6802,685.6059,1026.49,680.21" style="stroke:#181818;stroke-width:1;"/></g><!--reverse link BaseMenuItem to KidsMeal--><g class="link" data-entity-1="BaseMenuItem" data-entity-2="KidsMeal" data-source-line="48" data-uid="lnk33" id="link_BaseMenuItem_KidsMeal"><path d="M1049.0904,687.4939 C1108.9304,713.9739 1194.98,749.01 1255.33,772.01" fill="none" id="BaseMenuItem-backto-KidsMeal" style="stroke:#181818;stroke-width:1;"/><polygon fill="none" points="1032.63,680.21,1046.6624,692.9807,1051.5184,682.0071,1032.63,680.21" style="stroke:#181818;stroke-width:1;"/></g><!--reverse link BaseMenuItem to KidsMeal--><g class="link" data-entity-1="BaseMenuItem" data-entity-2="KidsMeal" data-source-line="108" data-uid="lnk82" id="link_BaseMenuItem_KidsMeal"><path codeLine="108" d="M1070.0763,686.7335 C1131.6163,710.6635 1203.75,741.01 1257.42,764.86" fill="none" id="BaseMenuItem-backto-KidsMeal-1" style="stroke:#181818;stroke-width:1;"/><polygon fill="none" points="1053.3,680.21,1067.9018,692.3256,1072.2508,681.1414,1053.3,680.21" style="stroke:#181818;stroke-width:1;"/></g><!--reverse link IMenuItem to AddonDecorator--><g class="link" data-entity-1="IMenuItem" data-entity-2="AddonDecorator" data-source-line="53" data-uid="lnk37" id="link_IMenuItem_AddonDecorator"><path d="M2952,531.83 C2952,555.94 2952,576.39 2952,607.04" fill="none" id="IMenuItem-backto-AddonDecorator" style="stroke:#181818;stroke-width:1;stroke-dasharray:7,7;"/><polygon fill="none" points="2952,513.83,2946,531.83,2958,531.83,2952,513.83" style="stroke:#181818;stroke-width:1;"/></g><!--reverse link AddonDecorator to ExtraCheese--><g class="link" data-entity-1="AddonDecorator" data-entity-2="ExtraCheese" data-source-line="57" data-uid="lnk39" id="link_AddonDecorator_ExtraCheese"><path d="M2870.9212,716.0744 C2846.3012,736.6244 2834.37,748.18 2817.74,764.87" fill="none" id="AddonDecorator-backto-ExtraCheese" style="stroke:#181818;stroke-width:1;"/><polygon fill="none" points="2884.74,704.54,2867.0764,711.4681,2874.766,720.6806,2884.74,704.54" style="stroke:#181818;stroke-width:1;"/></g><!--reverse link AddonDecorator to ExtraCheese--><g class="link" data-entity-1="AddonDecorator" data-entity-2="ExtraCheese" data-source-line="111" data-uid="lnk84" id="link_AddonDecorator_ExtraCheese"><path codeLine="111" d="M2896.7984,716.6672 C2874.2584,737.2172 2860.23,748.18 2838.35,764.87" fill="none" id="AddonDecorator-backto-ExtraCheese-1" style="stroke:#181818;stroke-width:1;"/><polygon fill="none" points="2910.1,704.54,2892.7561,712.2333,2900.8408,721.101,2910.1,704.54" style="stroke:#181818;stroke-width:1;"/></g><!--reverse link AddonDecorator to ExtraSauce--><g class="link" data-entity-1="AddonDecorator" data-entity-2="ExtraSauce" data-source-line="58" data-uid="lnk41" id="link_AddonDecorator_ExtraSauce"><path d="M2938.7964,722.5183 C2937.7864,743.0683 2939.44,748.18 2941.99,764.87" fill="none" id="AddonDecorator-backto-ExtraSauce" style="stroke:#181818;stroke-width:1;"/><polygon fill="none" points="2939.68,704.54,2932.8036,722.2238,2944.7892,722.8128,2939.68,704.54" style="stroke:#181818;stroke-width:1;"/></g><!--reverse link AddonDecorator to ExtraSauce--><g class="link" data-entity-1="AddonDecorator" data-entity-2="ExtraSauce" data-source-line="112" data-uid="lnk85" id="link_AddonDecorator_ExtraSauce"><path codeLine="112" d="M2965.976,722.5156 C2967.046,743.0656 2965.3,748.18 2962.6,764.87" fill="none" id="AddonDecorator-backto-ExtraSauce-1" style="stroke:#181818;stroke-width:1;"/><polygon fill="none" points="2965.04,704.54,2959.9841,722.8276,2971.9678,722.2037,2965.04,704.54" style="stroke:#181818;stroke-width:1;"/></g><!--reverse link AddonDecorator to MushroomTopping--><g class="link" data-entity-1="AddonDecorator" data-entity-2="MushroomTopping" data-source-line="59" data-uid="lnk43" id="link_AddonDecorator_MushroomTopping"><path d="M3016.3561,715.7338 C3042.1461,736.2138 3058.9,748.01 3083.26,764.69" fill="none" id="AddonDecorator-backto-MushroomTopping" style="stroke:#181818;stroke-width:1;"/><polygon fill="none" points="3002.26,704.54,3012.6248,720.4325,3020.0873,711.0351,3002.26,704.54" style="stroke:#181818;stroke-width:1;"/></g><!--reverse link AddonDecorator to MushroomTopping--><g class="link" data-entity-1="AddonDecorator" data-entity-2="MushroomTopping" data-source-line="113" data-uid="lnk86" id="link_AddonDecorator_MushroomTopping"><path codeLine="113" d="M3042.1339,715.2001 C3070.0939,735.7501 3084.98,748.18 3104.13,764.87" fill="none" id="AddonDecorator-backto-MushroomTopping-1" style="stroke:#181818;stroke-width:1;"/><polygon fill="none" points="3027.63,704.54,3038.5806,720.0347,3045.6873,710.3654,3027.63,704.54" style="stroke:#181818;stroke-width:1;"/></g><!--reverse link IDiscountStrategy to PizzaDiscount--><g class="link" data-entity-1="IDiscountStrategy" data-entity-2="PizzaDiscount" data-source-line="66" data-uid="lnk47" id="link_IDiscountStrategy_PizzaDiscount"><path d="M2424,337.05 C2424,377.58 2424,429.16 2424,465.32" fill="none" id="IDiscountStrategy-backto-PizzaDiscount" style="stroke:#181818;stroke-width:1;stroke-dasharray:7,7;"/><polygon fill="none" points="2424,319.05,2418,337.05,2430,337.05,2424,319.05" style="stroke:#181818;stroke-width:1;"/></g><!--reverse link IDiscountStrategy to KidsMenuDiscount--><g class="link" data-entity-1="IDiscountStrategy" data-entity-2="KidsMenuDiscount" data-source-line="67" data-uid="lnk49" id="link_IDiscountStrategy_KidsMenuDiscount"><path d="M2464.1271,332.46 C2500.4171,372.99 2550.71,429.16 2583.09,465.32" fill="none" id="IDiscountStrategy-backto-KidsMenuDiscount" style="stroke:#181818;stroke-width:1;stroke-dasharray:7,7;"/><polygon fill="none" points="2452.12,319.05,2459.6571,336.4624,2468.5971,328.4576,2452.12,319.05" style="stroke:#181818;stroke-width:1;"/></g><!--reverse link IDiscountStrategy to MeatDiscount--><g class="link" data-entity-1="IDiscountStrategy" data-entity-2="MeatDiscount" data-source-line="68" data-uid="lnk51" id="link_IDiscountStrategy_MeatDiscount"><path d="M2287.5764,324.9498 C2239.2564,341.2698 2201.73,358.71 2158,390.08 C2129.42,410.59 2104.88,443.34 2090.28,465.41" fill="none" id="IDiscountStrategy-backto-MeatDiscount" style="stroke:#181818;stroke-width:1;stroke-dasharray:7,7;"/><polygon fill="none" points="2304.63,319.19,2285.6565,319.2653,2289.4964,330.6343,2304.63,319.19" style="stroke:#181818;stroke-width:1;"/></g><!--reverse link IDiscountStrategy to ChickenDiscount--><g class="link" data-entity-1="IDiscountStrategy" data-entity-2="ChickenDiscount" data-source-line="69" data-uid="lnk53" id="link_IDiscountStrategy_ChickenDiscount"><path d="M2385.0301,332.66 C2349.9501,373.19 2301.51,429.16 2270.22,465.32" fill="none" id="IDiscountStrategy-backto-ChickenDiscount" style="stroke:#181818;stroke-width:1;stroke-dasharray:7,7;"/><polygon fill="none" points="2396.81,319.05,2380.4934,328.7334,2389.5668,336.5867,2396.81,319.05" style="stroke:#181818;stroke-width:1;"/></g><!--reverse link IOrderObserver to KitchenNotification--><g class="link" data-entity-1="IOrderObserver" data-entity-2="KitchenNotification" data-source-line="81" data-uid="lnk58" id="link_IOrderObserver_KitchenNotification"><path d="M3493.5332,539.4593 C3483.4132,571.3993 3473.45,602.81 3464.39,631.4" fill="none" id="IOrderObserver-backto-KitchenNotification" style="stroke:#181818;stroke-width:1;stroke-dasharray:7,7;"/><polygon fill="none" points="3498.97,522.3,3487.8134,537.647,3499.2529,541.2716,3498.97,522.3" style="stroke:#181818;stroke-width:1;"/></g><!--reverse link IOrderObserver to WaiterNotification--><g class="link" data-entity-1="IOrderObserver" data-entity-2="WaiterNotification" data-source-line="82" data-uid="lnk60" id="link_IOrderObserver_WaiterNotification"><path d="M3548.8781,535.7892 C3577.0981,567.7292 3608.12,602.81 3633.39,631.4" fill="none" id="IOrderObserver-backto-WaiterNotification" style="stroke:#181818;stroke-width:1;stroke-dasharray:7,7;"/><polygon fill="none" points="3536.96,522.3,3544.3817,539.7619,3553.3745,531.8165,3536.96,522.3" style="stroke:#181818;stroke-width:1;"/></g><!--reverse link IPaymentMethod to CashPayment--><g class="link" data-entity-1="IPaymentMethod" data-entity-2="CashPayment" data-source-line="89" data-uid="lnk64" id="link_IPaymentMethod_CashPayment"><path d="M3959.2535,333.8903 C3931.4335,374.4203 3893.85,429.16 3869.03,465.32" fill="none" id="IPaymentMethod-backto-CashPayment" style="stroke:#181818;stroke-width:1;stroke-dasharray:7,7;"/><polygon fill="none" points="3969.44,319.05,3954.3067,330.4948,3964.2003,337.2858,3969.44,319.05" style="stroke:#181818;stroke-width:1;"/></g><!--reverse link IPaymentMethod to CreditCardPayment--><g class="link" data-entity-1="IPaymentMethod" data-entity-2="CreditCardPayment" data-source-line="90" data-uid="lnk66" id="link_IPaymentMethod_CreditCardPayment"><path d="M4002.2033,336.5969 C4011.4733,377.1269 4023.38,429.16 4031.66,465.32" fill="none" id="IPaymentMethod-backto-CreditCardPayment" style="stroke:#181818;stroke-width:1;stroke-dasharray:7,7;"/><polygon fill="none" points="3998.19,319.05,3996.3544,337.9347,4008.0523,335.2591,3998.19,319.05" style="stroke:#181818;stroke-width:1;"/></g><!--reverse link IPaymentMethod to MobileWalletPayment--><g class="link" data-entity-1="IPaymentMethod" data-entity-2="MobileWalletPayment" data-source-line="91" data-uid="lnk68" id="link_IPaymentMethod_MobileWalletPayment"><path d="M4054.7387,329.1069 C4084.1387,348.6569 4106.99,364.82 4139,390.08 C4169.8,414.39 4203.08,444.86 4224.87,465.44" fill="none" id="IPaymentMethod-backto-MobileWalletPayment" style="stroke:#181818;stroke-width:1;stroke-dasharray:7,7;"/><polygon fill="none" points="4039.75,319.14,4051.4163,334.1032,4058.061,324.1107,4039.75,319.14" style="stroke:#181818;stroke-width:1;"/></g><!--link RestaurantFacade to IMenuFactory--><g class="link" data-entity-1="RestaurantFacade" data-entity-2="IMenuFactory" data-source-line="95" data-uid="lnk69" id="link_RestaurantFacade_IMenuFactory"><path codeLine="95" d="M2652.76,109.22 C2463.26,120.77 2212.72,144.88 1996,195.19 C1943.85,207.3 1893.2633,225.3328 1847.9833,243.6228" fill="none" id="RestaurantFacade-to-IMenuFactory" style="stroke:#181818;stroke-width:1;"/><polygon fill="#181818" points="1842.42,245.87,1852.2631,246.2081,1847.0561,243.9973,1849.2668,238.7904,1842.42,245.87" style="stroke:#181818;stroke-width:1;"/></g><!--link IMenuFactory to IMenu--><g class="link" data-entity-1="IMenuFactory" data-entity-2="IMenu" data-source-line="96" data-uid="lnk70" id="link_IMenuFactory_IMenu"><path codeLine="96" d="M1613.04,293.3 C1341.59,305.4 750.29,337.03 554,390.08 C505.01,403.32 458.7176,424.8543 419.1876,446.0543" fill="none" id="IMenuFactory-to-IMenu" style="stroke:#181818;stroke-width:1;stroke-dasharray:7,7;"/><polygon fill="#181818" points="413.9,448.89,423.7219,448.1614,418.3063,446.5269,419.9409,441.1113,413.9,448.89" style="stroke:#181818;stroke-width:1;"/></g><!--link IMenuFactory to IMenuItem--><g class="link" data-entity-1="IMenuFactory" data-entity-2="IMenuItem" data-source-line="97" data-uid="lnk72" id="link_IMenuFactory_IMenuItem"><path codeLine="97" d="M1890.8,318.29 C1925.03,324.84 1961.72,331 1996,335.08 C2131.29,351.18 3101.6,324.46 3221,390.08 C3250.84,406.48 3268.2324,436.483 3278.6824,460.103" fill="none" id="IMenuFactory-to-IMenuItem" style="stroke:#181818;stroke-width:1;stroke-dasharray:7,7;"/><polygon fill="#181818" points="3281.11,465.59,3281.1266,455.7412,3279.087,461.0175,3273.8107,458.9779,3281.11,465.59" style="stroke:#181818;stroke-width:1;"/></g><!--link KidsMenu to KidsMeal--><g class="link" data-entity-1="KidsMenu" data-entity-2="KidsMeal" data-source-line="98" data-uid="lnk73" id="link_KidsMenu_KidsMeal"><path codeLine="98" d="M500.25,680.04 C516.13,689.13 535.37,698.66 554,704.16 C846.72,790.57 939.79,700.19 1238,765.16 C1243.73,766.41 1243.9151,766.2562 1249.7351,768.0462" fill="none" id="KidsMenu-to-KidsMeal" style="stroke:#181818;stroke-width:1;"/><polygon fill="#181818" points="1255.47,769.81,1248.0436,763.341,1250.6909,768.3401,1245.6918,770.9875,1255.47,769.81" style="stroke:#181818;stroke-width:1;"/></g><!--link VegetarianMenu to MargheritaPizza--><g class="link" data-entity-1="VegetarianMenu" data-entity-2="MargheritaPizza" data-source-line="99" data-uid="lnk74" id="link_VegetarianMenu_MargheritaPizza"><path codeLine="99" d="M134.72,680.16 C150.47,688.82 169.14,698.01 187,704.16 C317.83,749.2 472.6248,771.0144 563.8148,780.8844" fill="none" id="VegetarianMenu-to-MargheritaPizza" style="stroke:#181818;stroke-width:1;"/><polygon fill="#181818" points="569.78,781.53,561.2627,776.5848,564.809,780.992,560.4018,784.5383,569.78,781.53" style="stroke:#181818;stroke-width:1;"/></g><!--link VegetarianMenu to VeggieBurger--><g class="link" data-entity-1="VegetarianMenu" data-entity-2="VeggieBurger" data-source-line="100" data-uid="lnk75" id="link_VegetarianMenu_VeggieBurger"><path codeLine="100" d="M132.68,680.03 C148.74,689.12 168.19,698.65 187,704.16 C340.68,749.16 747.42,736.7 905,765.16 C910.47,766.15 910.2507,765.9706 915.8807,767.3006" fill="none" id="VegetarianMenu-to-VeggieBurger" style="stroke:#181818;stroke-width:1;"/><polygon fill="#181818" points="921.72,768.68,913.8807,762.718,916.8539,767.5305,912.0415,770.5037,921.72,768.68" style="stroke:#181818;stroke-width:1;"/></g><!--link NonVegetarianMenu to PepperoniPizza--><g class="link" data-entity-1="NonVegetarianMenu" data-entity-2="PepperoniPizza" data-source-line="101" data-uid="lnk76" id="link_NonVegetarianMenu_PepperoniPizza"><path codeLine="101" d="M338.81,680.1 C356.72,688.45 377.52,697.45 397,704.16 C540.08,753.47 583.75,734.76 732,765.16 C737.45,766.28 737.2307,766.1606 742.8607,767.4906" fill="none" id="NonVegetarianMenu-to-PepperoniPizza" style="stroke:#181818;stroke-width:1;"/><polygon fill="#181818" points="748.7,768.87,740.8607,762.908,743.8339,767.7205,739.0215,770.6937,748.7,768.87" style="stroke:#181818;stroke-width:1;"/></g><!--link NonVegetarianMenu to ChickenBurger--><g class="link" data-entity-1="NonVegetarianMenu" data-entity-2="ChickenBurger" data-source-line="102" data-uid="lnk77" id="link_NonVegetarianMenu_ChickenBurger"><path codeLine="102" d="M335.55,680.11 C354.01,689.04 376.06,698.43 397,704.16 C685.42,783.03 772.26,714.8 1067,765.16 C1072.94,766.18 1073.217,766.0902 1079.337,767.4702" fill="none" id="NonVegetarianMenu-to-ChickenBurger" style="stroke:#181818;stroke-width:1;"/><polygon fill="#181818" points="1085.19,768.79,1077.2903,762.9083,1080.3125,767.6902,1075.5306,770.7123,1085.19,768.79" style="stroke:#181818;stroke-width:1;"/></g><!--reverse link IMenuItem to AddonDecorator--><g class="link" data-entity-1="IMenuItem" data-entity-2="AddonDecorator" data-source-line="110" data-uid="lnk83" id="link_IMenuItem_AddonDecorator"><path codeLine="110" d="M3251.1442,525.7285 C3238.6242,536.4985 3236.52,537.16 3221,546.27 C3165.96,578.57 3099.48,605.47 3046.38,624.4" fill="none" id="IMenuItem-backto-AddonDecorator-1" style="stroke:#181818;stroke-width:1;"/><polygon fill="none" points="3264.79,513.99,3247.2314,521.1799,3255.057,530.2771,3264.79,513.99" style="stroke:#181818;stroke-width:1;"/></g><!--link Order to IOrderObserver--><g class="link" data-entity-1="Order" data-entity-2="IOrderObserver" data-source-line="115" data-uid="lnk87" id="link_Order_IOrderObserver"><path codeLine="115" d="M3509,335.53 C3509,373.16 3509,418.49 3509,451.12" fill="none" id="Order-to-IOrderObserver" style="stroke:#181818;stroke-width:1;"/><polygon fill="#181818" points="3509,457.12,3513,448.12,3509,452.12,3505,448.12,3509,457.12" style="stroke:#181818;stroke-width:1;"/><text fill="#000000" font-family="sans-serif" font-size="13" lengthAdjust="spacing" textLength="47.8613" x="3510" y="378.1469">notifies</text></g><!--reverse link Order to IMenuItem--><g class="link" data-entity-1="Order" data-entity-2="IMenuItem" data-source-line="116" data-uid="lnk88" id="link_Order_IMenuItem"><path codeLine="116" d="M3417.4736,342.2685 C3394.0336,358.0385 3379.3,370.02 3359,390.08 C3335.97,412.85 3315.53,444.19 3302.99,465.38" fill="none" id="Order-backto-IMenuItem" style="stroke:#181818;stroke-width:1;"/><polygon fill="#181818" points="3427.43,335.57,3420.219,335.6004,3417.4736,342.2685,3424.6846,342.2381,3427.43,335.57" style="stroke:#181818;stroke-width:1;"/><text fill="#000000" font-family="sans-serif" font-size="13" lengthAdjust="spacing" textLength="8.271" x="3407.9492" y="355.2292">1</text><text fill="#000000" font-family="sans-serif" font-size="13" lengthAdjust="spacing" textLength="16.5356" x="3288.272" y="454.7118">0..</text></g><!--link RestaurantFacade to Order--><g class="link" data-entity-1="RestaurantFacade" data-entity-2="Order" data-source-line="118" data-uid="lnk89" id="link_RestaurantFacade_Order"><path codeLine="118" d="M3115.24,154.59 C3198.35,182.25 3291.537,213.2655 3369.427,239.1855" fill="none" id="RestaurantFacade-to-Order" style="stroke:#181818;stroke-width:1;"/><polygon fill="#181818" points="3375.12,241.08,3367.8434,234.4429,3370.3758,239.5012,3365.3174,242.0336,3375.12,241.08" style="stroke:#181818;stroke-width:1;"/></g><!--link RestaurantFacade to IDiscountStrategy--><g class="link" data-entity-1="RestaurantFacade" data-entity-2="IDiscountStrategy" data-source-line="119" data-uid="lnk90" id="link_RestaurantFacade_IDiscountStrategy"><path codeLine="119" d="M2790.44,154.59 C2699.4,187.15 2593.6798,224.96 2517.7698,252.1" fill="none" id="RestaurantFacade-to-IDiscountStrategy" style="stroke:#181818;stroke-width:1;"/><polygon fill="#181818" points="2512.12,254.12,2521.9413,254.8566,2516.8281,252.4367,2519.248,247.3236,2512.12,254.12" style="stroke:#181818;stroke-width:1;"/></g><!--link RestaurantFacade to IPaymentMethod--><g class="link" data-entity-1="RestaurantFacade" data-entity-2="IPaymentMethod" data-source-line="120" data-uid="lnk91" id="link_RestaurantFacade_IPaymentMethod"><path codeLine="120" d="M3240.95,117.16 C3393.99,131.04 3583.27,154.85 3749,195.19 C3808.16,209.59 3867.0959,231.832 3914.6059,251.732" fill="none" id="RestaurantFacade-to-IPaymentMethod" style="stroke:#181818;stroke-width:1;"/><polygon fill="#181818" points="3920.14,254.05,3913.3841,246.8835,3915.5282,252.1183,3910.2934,254.2624,3920.14,254.05" style="stroke:#181818;stroke-width:1;"/></g><!--SRC=[bLPDJnin4Btlhx3I0w4b4KNg9K984412D3Hggd9sx65ZPMElR2ybjFpt-ciNUtS3GLo2vyrutipupHwWdw0qhYJc6lsG52JZELfibOOD6g5p-eWv0OeMua7_mHBG5SyP1myxEJxvbcLgpNY99TwW9IRhN8gAqwaeX4IVhg_iNuGW1LRgN6l9bfM66oBuWZq3EeuWfGc2SvXZIjqTvePmX0RNc60A0uJ-PiZ7YjBtHcT2QFI0YHPoEq4tC-3LjV_FcRueA81eUppKsn8cQA4jdKDl9HAm1bUAr3pnzGce5P2rgFHGsBDWEaAKAMBuQtFjPVXfl4syV7jac6qtu6np_si6UYMelVSbUqbfscpH76iDaWyS9yRDRyCA4aQ1RiZQSJeCd6F3ZMbdcuq3MOExlwxdRyZZy6nJ5c1pLUr2UlYTu1_qk6LKxOEF2sBFUwjGqyz1MoRAal_Eb3vjo9rvW6bCMU3jyB1D5ZIM37CNh9rAY-LUq9fU5n4JSidsChAMYDKTte0bvRlM7Cyb8-wSYcfPG7C-jQDcgjVZSWcAI5Pg9dXYjTN0IsMcbEZ0uG8hQ79fymWJuv4pBFEL4GEDv-pv6IDuqi1f6g41pw4iGGhEzi2QSkSCBYgPWtmRELqniWQ-3zJt1XVzgBW_bq24URP6my8RT5f81GzDQnNCcLvz-afMwn8plzEtztPxTlNxTOYldamgqnM0WePOcb0ANU2Al8kSLMebXTZy4cLfPNW7FAvPBNHHoMeDx8vwMnqR7SC5gGfpL0CIWUqlW1kd6fyKltrBvvL-pClCZlwOHnZE_PpYOlvOAf2F8DCTu8EwKjJp909GrSBdhBLxK3-pI-kJeN4myvUWmkRZGhE7RNse6gsCsfQurJshIce8f8rA6dJBjDcN_Cx6PmJR6KygaKHjlEwnUIjoJwUuTc6xTcOksRfrygKK19GAjY7U-FNjnwojaw6fMAq2FiaeYV-Aba2P4MP9z_UPYIKhu1uNXNdwxtePxWVcEwXmDL8hLggiyrKq6fsbwpNvY1YFWtN7iLEgPhFPMBMKPgszQ6sjfT07YUKzwsvN2qctnGvG8lvPbYokqt-ZKIUNBg9rJnUGvDerfobqxKsbiflKq9BIrWvna4ZQTzkTdlUQMoAUPLuvt2oaBtc2tEDde09cy7M0FfiGW-FnU10DGVza-G_Z_g7ho5m_B1df_m00]--></g></svg>